<svg width="644" height="400" viewBox="0 0 644 400" fill="none" xmlns="http://www.w3.org/2000/svg">
<path d="M46 270.489C45.9982 274.25 46.814 277.977 48.403 281.466C49.0133 282.819 49.7418 284.129 50.5819 285.382C51.667 287.017 52.9261 288.556 54.3421 289.98C57.47 293.129 61.3227 295.651 65.6428 297.379C69.9629 299.108 74.6508 300.001 79.3932 300H566.607C575.463 300 583.957 296.892 590.219 291.36C596.482 285.827 600 278.324 600 270.5C600 262.676 596.482 255.173 590.219 249.64C583.957 244.108 575.463 241 566.607 241H79.3932C70.5416 241.008 62.0548 244.117 55.7947 249.645C49.5345 255.173 46.012 262.669 46 270.489Z" fill="#E6E6E6"/>
<path d="M0 288C7.57234 299.378 15.7627 310.071 24.5111 320H619.489C628.237 310.071 636.428 299.378 644 288H0Z" fill="#151515"/>
<path d="M286.965 181.349V293.771H365.724V181.349C365.725 180.54 365.467 179.752 364.988 179.101C364.508 178.45 363.833 177.97 363.06 177.731C362.696 177.611 362.315 177.552 361.931 177.556H290.769C290.27 177.555 289.776 177.652 289.314 177.842C288.853 178.032 288.434 178.312 288.081 178.664C287.727 179.016 287.447 179.435 287.256 179.895C287.064 180.356 286.965 180.85 286.965 181.349ZM317.701 219.977C317.722 217.761 318.617 215.642 320.191 214.082C321.766 212.522 323.892 211.647 326.109 211.647C328.325 211.647 330.452 212.522 332.026 214.082C333.601 215.642 334.496 217.761 334.516 219.977V233.022C334.505 235.244 333.614 237.371 332.039 238.939C330.463 240.506 328.331 241.386 326.109 241.386C323.886 241.386 321.754 240.506 320.179 238.939C318.603 237.371 317.713 235.244 317.701 233.022V219.977Z" fill="#2F2E41"/>
<path d="M286.724 290.175V301.016C286.726 301.578 286.949 302.116 287.345 302.514C287.741 302.912 288.278 303.138 288.839 303.143H363.85C364.412 303.14 364.95 302.915 365.346 302.516C365.743 302.118 365.965 301.578 365.965 301.016V290.175H286.724Z" fill="#3F3D56"/>
<path d="M163.066 11.9699V217.237C163.068 219.853 164.108 222.361 165.958 224.211C167.808 226.06 170.316 227.1 172.931 227.102H477.116C479.732 227.1 482.24 226.06 484.09 224.211C485.939 222.361 486.979 219.853 486.981 217.237V11.9699C486.975 9.35639 485.933 6.85185 484.084 5.00481C482.235 3.15777 479.73 2.1188 477.116 2.11548H172.931C170.318 2.11881 167.812 3.15777 165.963 5.00481C164.114 6.85185 163.072 9.3564 163.066 11.9699Z" fill="#3F3D56"/>
<path d="M170.202 14.524V214.705C170.204 216.102 170.761 217.442 171.749 218.43C172.737 219.419 174.077 219.975 175.475 219.977H474.584C475.981 219.975 477.321 219.419 478.309 218.43C479.298 217.442 479.854 216.102 479.856 214.705V14.524C479.856 13.1246 479.301 11.7825 478.313 10.792C477.324 9.80149 475.983 9.24351 474.584 9.24048H175.475C174.075 9.24353 172.734 9.80152 171.746 10.792C170.757 11.7825 170.202 13.1247 170.202 14.524Z" fill="#732AEB"/>
<path d="M231.192 305.697C231.497 306.079 231.884 306.386 232.324 306.597C232.765 306.808 233.247 306.916 233.735 306.914H411.686C412.173 306.913 412.653 306.804 413.092 306.594C413.532 306.385 413.919 306.08 414.225 305.702C414.532 305.324 414.75 304.882 414.865 304.409C414.979 303.936 414.987 303.444 414.887 302.967L412.125 289.846C412.01 289.311 411.764 288.813 411.407 288.398C411.051 287.982 410.597 287.663 410.086 287.468C409.716 287.322 409.321 287.248 408.924 287.249H236.487C236.089 287.248 235.695 287.322 235.325 287.468C234.814 287.663 234.359 287.982 234.003 288.398C233.647 288.813 233.4 289.311 233.286 289.846L230.524 302.967C230.425 303.443 230.434 303.935 230.55 304.408C230.666 304.88 230.885 305.32 231.192 305.697Z" fill="#2F2E41"/>
<path d="M402.714 292.9H407.125C407.42 292.9 407.66 292.661 407.66 292.365V290.147C407.66 289.852 407.42 289.612 407.125 289.612H402.714C402.419 289.612 402.179 289.852 402.179 290.147V292.365C402.179 292.661 402.419 292.9 402.714 292.9Z" fill="#3F3D56"/>
<path d="M391.753 292.9H396.163C396.459 292.9 396.698 292.661 396.698 292.365V290.147C396.698 289.852 396.459 289.612 396.163 289.612H391.753C391.457 289.612 391.218 289.852 391.218 290.147V292.365C391.218 292.661 391.457 292.9 391.753 292.9Z" fill="#3F3D56"/>
<path d="M380.791 292.9H385.202C385.497 292.9 385.737 292.661 385.737 292.365V290.147C385.737 289.852 385.497 289.612 385.202 289.612H380.791C380.496 289.612 380.256 289.852 380.256 290.147V292.365C380.256 292.661 380.496 292.9 380.791 292.9Z" fill="#3F3D56"/>
<path d="M369.829 292.9H374.24C374.536 292.9 374.775 292.661 374.775 292.365V290.147C374.775 289.852 374.536 289.612 374.24 289.612H369.829C369.534 289.612 369.294 289.852 369.294 290.147V292.365C369.294 292.661 369.534 292.9 369.829 292.9Z" fill="#3F3D56"/>
<path d="M358.868 292.9H363.278C363.574 292.9 363.814 292.661 363.814 292.365V290.147C363.814 289.852 363.574 289.612 363.278 289.612H358.868C358.572 289.612 358.333 289.852 358.333 290.147V292.365C358.333 292.661 358.572 292.9 358.868 292.9Z" fill="#3F3D56"/>
<path d="M347.906 292.9H352.317C352.612 292.9 352.852 292.661 352.852 292.365V290.147C352.852 289.852 352.612 289.612 352.317 289.612H347.906C347.611 289.612 347.371 289.852 347.371 290.147V292.365C347.371 292.661 347.611 292.9 347.906 292.9Z" fill="#3F3D56"/>
<path d="M336.945 292.9H341.355C341.651 292.9 341.89 292.661 341.89 292.365V290.147C341.89 289.852 341.651 289.612 341.355 289.612H336.945C336.649 289.612 336.409 289.852 336.409 290.147V292.365C336.409 292.661 336.649 292.9 336.945 292.9Z" fill="#3F3D56"/>
<path d="M325.983 292.9H330.394C330.689 292.9 330.929 292.661 330.929 292.365V290.147C330.929 289.852 330.689 289.612 330.394 289.612H325.983C325.687 289.612 325.448 289.852 325.448 290.147V292.365C325.448 292.661 325.687 292.9 325.983 292.9Z" fill="#3F3D56"/>
<path d="M315.021 292.9H319.432C319.728 292.9 319.967 292.661 319.967 292.365V290.147C319.967 289.852 319.728 289.612 319.432 289.612H315.021C314.726 289.612 314.486 289.852 314.486 290.147V292.365C314.486 292.661 314.726 292.9 315.021 292.9Z" fill="#3F3D56"/>
<path d="M304.06 292.9H308.47C308.766 292.9 309.006 292.661 309.006 292.365V290.147C309.006 289.852 308.766 289.612 308.47 289.612H304.06C303.764 289.612 303.525 289.852 303.525 290.147V292.365C303.525 292.661 303.764 292.9 304.06 292.9Z" fill="#3F3D56"/>
<path d="M293.098 292.9H297.509C297.804 292.9 298.044 292.661 298.044 292.365V290.147C298.044 289.852 297.804 289.612 297.509 289.612H293.098C292.803 289.612 292.563 289.852 292.563 290.147V292.365C292.563 292.661 292.803 292.9 293.098 292.9Z" fill="#3F3D56"/>
<path d="M282.137 292.9H286.547C286.843 292.9 287.082 292.661 287.082 292.365V290.147C287.082 289.852 286.843 289.612 286.547 289.612H282.137C281.841 289.612 281.601 289.852 281.601 290.147V292.365C281.601 292.661 281.841 292.9 282.137 292.9Z" fill="#3F3D56"/>
<path d="M271.175 292.9H275.586C275.881 292.9 276.121 292.661 276.121 292.365V290.147C276.121 289.852 275.881 289.612 275.586 289.612H271.175C270.879 289.612 270.64 289.852 270.64 290.147V292.365C270.64 292.661 270.879 292.9 271.175 292.9Z" fill="#3F3D56"/>
<path d="M260.213 292.9H264.624C264.92 292.9 265.159 292.661 265.159 292.365V290.147C265.159 289.852 264.92 289.612 264.624 289.612H260.213C259.918 289.612 259.678 289.852 259.678 290.147V292.365C259.678 292.661 259.918 292.9 260.213 292.9Z" fill="#3F3D56"/>
<path d="M249.252 292.9H253.662C253.958 292.9 254.197 292.661 254.197 292.365V290.147C254.197 289.852 253.958 289.612 253.662 289.612H249.252C248.956 289.612 248.717 289.852 248.717 290.147V292.365C248.717 292.661 248.956 292.9 249.252 292.9Z" fill="#3F3D56"/>
<path d="M238.29 292.9H242.701C242.996 292.9 243.236 292.661 243.236 292.365V290.147C243.236 289.852 242.996 289.612 242.701 289.612H238.29C237.995 289.612 237.755 289.852 237.755 290.147V292.365C237.755 292.661 237.995 292.9 238.29 292.9Z" fill="#3F3D56"/>
<path d="M402.844 298.381H407.254C407.55 298.381 407.789 298.142 407.789 297.846V295.628C407.789 295.332 407.55 295.093 407.254 295.093H402.844C402.548 295.093 402.309 295.332 402.309 295.628V297.846C402.309 298.142 402.548 298.381 402.844 298.381Z" fill="#3F3D56"/>
<path d="M391.882 298.381H396.293C396.588 298.381 396.828 298.142 396.828 297.846V295.628C396.828 295.332 396.588 295.093 396.293 295.093H391.882C391.587 295.093 391.347 295.332 391.347 295.628V297.846C391.347 298.142 391.587 298.381 391.882 298.381Z" fill="#3F3D56"/>
<path d="M380.921 298.381H385.331C385.627 298.381 385.866 298.142 385.866 297.846V295.628C385.866 295.332 385.627 295.093 385.331 295.093H380.921C380.625 295.093 380.385 295.332 380.385 295.628V297.846C380.385 298.142 380.625 298.381 380.921 298.381Z" fill="#3F3D56"/>
<path d="M369.959 298.381H374.369C374.665 298.381 374.905 298.142 374.905 297.846V295.628C374.905 295.332 374.665 295.093 374.369 295.093H369.959C369.663 295.093 369.424 295.332 369.424 295.628V297.846C369.424 298.142 369.663 298.381 369.959 298.381Z" fill="#3F3D56"/>
<path d="M358.997 298.381H363.408C363.703 298.381 363.943 298.142 363.943 297.846V295.628C363.943 295.332 363.703 295.093 363.408 295.093H358.997C358.702 295.093 358.462 295.332 358.462 295.628V297.846C358.462 298.142 358.702 298.381 358.997 298.381Z" fill="#3F3D56"/>
<path d="M348.036 298.381H352.446C352.742 298.381 352.981 298.142 352.981 297.846V295.628C352.981 295.332 352.742 295.093 352.446 295.093H348.036C347.74 295.093 347.501 295.332 347.501 295.628V297.846C347.501 298.142 347.74 298.381 348.036 298.381Z" fill="#3F3D56"/>
<path d="M337.074 298.381H341.485C341.78 298.381 342.02 298.142 342.02 297.846V295.628C342.02 295.332 341.78 295.093 341.485 295.093H337.074C336.779 295.093 336.539 295.332 336.539 295.628V297.846C336.539 298.142 336.779 298.381 337.074 298.381Z" fill="#3F3D56"/>
<path d="M326.113 298.381H330.523C330.819 298.381 331.058 298.142 331.058 297.846V295.628C331.058 295.332 330.819 295.093 330.523 295.093H326.113C325.817 295.093 325.577 295.332 325.577 295.628V297.846C325.577 298.142 325.817 298.381 326.113 298.381Z" fill="#3F3D56"/>
<path d="M315.151 298.381H319.562C319.857 298.381 320.097 298.142 320.097 297.846V295.628C320.097 295.332 319.857 295.093 319.562 295.093H315.151C314.855 295.093 314.616 295.332 314.616 295.628V297.846C314.616 298.142 314.855 298.381 315.151 298.381Z" fill="#3F3D56"/>
<path d="M304.189 298.381H308.6C308.895 298.381 309.135 298.142 309.135 297.846V295.628C309.135 295.332 308.895 295.093 308.6 295.093H304.189C303.894 295.093 303.654 295.332 303.654 295.628V297.846C303.654 298.142 303.894 298.381 304.189 298.381Z" fill="#3F3D56"/>
<path d="M293.228 298.381H297.638C297.934 298.381 298.173 298.142 298.173 297.846V295.628C298.173 295.332 297.934 295.093 297.638 295.093H293.228C292.932 295.093 292.693 295.332 292.693 295.628V297.846C292.693 298.142 292.932 298.381 293.228 298.381Z" fill="#3F3D56"/>
<path d="M282.266 298.381H286.677C286.972 298.381 287.212 298.142 287.212 297.846V295.628C287.212 295.332 286.972 295.093 286.677 295.093H282.266C281.971 295.093 281.731 295.332 281.731 295.628V297.846C281.731 298.142 281.971 298.381 282.266 298.381Z" fill="#3F3D56"/>
<path d="M271.305 298.381H275.715C276.011 298.381 276.25 298.142 276.25 297.846V295.628C276.25 295.332 276.011 295.093 275.715 295.093H271.305C271.009 295.093 270.769 295.332 270.769 295.628V297.846C270.769 298.142 271.009 298.381 271.305 298.381Z" fill="#3F3D56"/>
<path d="M260.343 298.381H264.753C265.049 298.381 265.289 298.142 265.289 297.846V295.628C265.289 295.332 265.049 295.093 264.753 295.093H260.343C260.047 295.093 259.808 295.332 259.808 295.628V297.846C259.808 298.142 260.047 298.381 260.343 298.381Z" fill="#3F3D56"/>
<path d="M249.381 298.381H253.792C254.087 298.381 254.327 298.142 254.327 297.846V295.628C254.327 295.332 254.087 295.093 253.792 295.093H249.381C249.086 295.093 248.846 295.332 248.846 295.628V297.846C248.846 298.142 249.086 298.381 249.381 298.381Z" fill="#3F3D56"/>
<path d="M238.42 298.381H242.83C243.126 298.381 243.365 298.142 243.365 297.846V295.628C243.365 295.332 243.126 295.093 242.83 295.093H238.42C238.124 295.093 237.885 295.332 237.885 295.628V297.846C237.885 298.142 238.124 298.381 238.42 298.381Z" fill="#3F3D56"/>
<path d="M311.862 304.958H354.639C354.934 304.958 355.174 304.719 355.174 304.423V302.205C355.174 301.91 354.934 301.67 354.639 301.67H311.862C311.567 301.67 311.327 301.91 311.327 302.205V304.423C311.327 304.719 311.567 304.958 311.862 304.958Z" fill="#3F3D56"/>
<path d="M273.594 162.097H267.843C266.1 162.097 264.687 163.51 264.687 165.254C264.687 166.997 266.1 168.41 267.843 168.41H273.594C275.338 168.41 276.751 166.997 276.751 165.254C276.751 163.51 275.338 162.097 273.594 162.097Z" fill="#E6E6E6"/>
<path d="M292.229 162.097H286.478C284.735 162.097 283.321 163.51 283.321 165.254C283.321 166.997 284.735 168.41 286.478 168.41H292.229C293.972 168.41 295.386 166.997 295.386 165.254C295.386 163.51 293.972 162.097 292.229 162.097Z" fill="#E6E6E6"/>
<path d="M343.397 162.623H307.656C305.913 162.623 304.499 164.036 304.499 165.779C304.499 167.523 305.913 168.936 307.656 168.936H343.397C345.141 168.936 346.554 167.523 346.554 165.779C346.554 164.036 345.141 162.623 343.397 162.623Z" fill="#E6E6E6"/>
<path d="M207.825 162.097H202.074C200.33 162.097 198.917 163.51 198.917 165.254C198.917 166.997 200.33 168.41 202.074 168.41H207.825C209.568 168.41 210.981 166.997 210.981 165.254C210.981 163.51 209.568 162.097 207.825 162.097Z" fill="#E6E6E6"/>
<path d="M255.705 162.623H219.963C218.22 162.623 216.807 164.036 216.807 165.779C216.807 167.523 218.22 168.936 219.963 168.936H255.705C257.448 168.936 258.861 167.523 258.861 165.779C258.861 164.036 257.448 162.623 255.705 162.623Z" fill="#E6E6E6"/>
<path d="M225.363 147.846H219.612C217.869 147.846 216.456 149.26 216.456 151.003C216.456 152.747 217.869 154.16 219.612 154.16H225.363C227.107 154.16 228.52 152.747 228.52 151.003C228.52 149.26 227.107 147.846 225.363 147.846Z" fill="#E6E6E6"/>
<path d="M291.133 147.846H285.382C283.639 147.846 282.225 149.26 282.225 151.003C282.225 152.747 283.639 154.16 285.382 154.16H291.133C292.876 154.16 294.29 152.747 294.29 151.003C294.29 149.26 292.876 147.846 291.133 147.846Z" fill="#E6E6E6"/>
<path d="M309.767 147.846H304.017C302.273 147.846 300.86 149.26 300.86 151.003C300.86 152.747 302.273 154.16 304.017 154.16H309.767C311.511 154.16 312.924 152.747 312.924 151.003C312.924 149.26 311.511 147.846 309.767 147.846Z" fill="#E6E6E6"/>
<path d="M273.243 148.373H237.502C235.759 148.373 234.345 149.786 234.345 151.529C234.345 153.273 235.759 154.686 237.502 154.686H273.243C274.987 154.686 276.4 153.273 276.4 151.529C276.4 149.786 274.987 148.373 273.243 148.373Z" fill="#E6E6E6"/>
<path d="M242.902 133.596H237.151C235.408 133.596 233.994 135.01 233.994 136.753C233.994 138.497 235.408 139.91 237.151 139.91H242.902C244.645 139.91 246.059 138.497 246.059 136.753C246.059 135.01 244.645 133.596 242.902 133.596Z" fill="#E6E6E6"/>
<path d="M308.671 133.596H302.921C301.177 133.596 299.764 135.01 299.764 136.753C299.764 138.497 301.177 139.91 302.921 139.91H308.671C310.415 139.91 311.828 138.497 311.828 136.753C311.828 135.01 310.415 133.596 308.671 133.596Z" fill="#E6E6E6"/>
<path d="M327.306 133.596H321.555C319.812 133.596 318.398 135.01 318.398 136.753C318.398 138.497 319.812 139.91 321.555 139.91H327.306C329.05 139.91 330.463 138.497 330.463 136.753C330.463 135.01 329.05 133.596 327.306 133.596Z" fill="#E6E6E6"/>
<path d="M290.782 134.123H255.041C253.297 134.123 251.884 135.536 251.884 137.279C251.884 139.023 253.297 140.436 255.041 140.436H290.782C292.525 140.436 293.939 139.023 293.939 137.279C293.939 135.536 292.525 134.123 290.782 134.123Z" fill="#E6E6E6"/>
<path d="M187.149 367.959C187.817 368.299 188.497 368.639 189.166 368.968C206.485 377.627 220.34 382.549 239.293 387.942C240.893 370.075 242.439 338.67 243.941 319.202C244.335 314.149 244.73 309.907 245.114 306.914C245.21 305.323 245.535 303.754 246.078 302.255L246.012 306.914L245.848 319.202L244.894 389.477C268.47 395.715 292.688 399.205 317.066 399.879C318.337 399.912 319.587 399.934 320.792 399.956C321.22 399.967 321.637 399.978 322.053 399.978C323.423 399.989 324.783 400 326.153 400C351.842 400.019 377.439 396.916 402.38 390.759C401.843 373.078 401.306 342.024 400.79 319.202C400.681 314.74 400.582 310.586 400.472 306.914C400.264 299.065 400.045 293.409 399.837 291.513C400.021 291.849 400.165 292.206 400.264 292.576C401.279 297.303 401.972 302.093 402.336 306.914C402.72 310.586 403.103 314.74 403.487 319.202C405.526 342.912 407.652 375.15 409.845 388.819C422.894 385.257 435.698 380.852 448.177 375.632C454.754 372.892 461.214 369.936 467.557 366.764C466.352 358.872 465.091 350.026 463.798 340.851C462.789 333.737 461.748 326.426 460.684 319.202C459.04 308.043 434.607 230.062 433.061 227.103C431.735 224.57 430.474 222.181 429.28 219.977C426.386 214.628 423.93 210.364 422.111 207.668C414.503 196.128 403.178 187.537 390.015 183.322L389.686 183.234L389.456 183.333L367.04 176.449L363.762 175.44L361.559 174.761L353.798 168.853L349.578 165.641L345.621 162.626L337.882 156.74L289.969 159.689L280.64 182.149L259.747 189.789L259.386 189.625L259.068 189.493L258.739 189.581C245.578 193.8 234.254 202.39 226.643 213.927C225.613 215.472 224.363 217.511 222.949 219.977C221.744 222.071 220.428 224.461 219.003 227.103C216.975 230.862 214.761 235.104 212.415 239.697C211.9 240.706 211.374 241.736 210.848 242.778C209.872 244.707 208.882 246.676 207.877 248.686C205.542 253.345 203.131 258.212 200.719 263.155C198.626 267.441 196.51 276.254 194.427 287.468C192.706 296.785 190.996 307.769 189.341 319.202C187.171 334.022 189.484 351.769 187.521 365.405C187.401 366.271 187.269 367.115 187.149 367.959Z" fill="#E0D0FB"/>
<path opacity="0.2" d="M416.783 287.42L407.469 251.475L399.245 282.492L416.783 287.42Z" fill="black"/>
<path d="M168.93 263.999C172.263 309.906 168.81 330.119 187.203 367.97C203.939 376.161 221.371 382.845 239.293 387.942C241.156 388.468 243.024 388.979 244.894 389.476C268.47 395.714 292.688 399.205 317.066 399.879C318.337 399.912 319.587 399.934 320.793 399.956C321.22 399.967 321.637 399.978 322.053 399.978C323.423 399.989 324.783 399.999 326.153 399.999C351.842 400.019 377.439 396.916 402.38 390.759C404.879 390.145 407.367 389.498 409.845 388.819C422.894 385.256 435.698 380.851 448.177 375.632C454.754 372.891 461.214 369.935 467.557 366.764C468.993 366.04 470.429 365.317 471.843 364.572C479.111 351.79 483.243 336.247 483.331 317.568C478.3 285.385 180.046 236.244 168.93 263.999Z" fill="#E6E6E6"/>
<path opacity="0.2" d="M168.939 271.861C168.769 269.019 168.579 266.083 168.357 263.026C179.472 235.271 477.726 284.412 482.757 316.595C482.744 319.546 482.617 322.409 482.405 325.205C470.221 293.44 186.875 246.735 168.939 271.861Z" fill="black"/>
<path d="M101.351 287.003C101.834 288.409 102.751 289.626 103.968 290.479C105.186 291.332 106.643 291.777 108.129 291.751L137.168 291.003C138.666 290.974 140.114 290.461 141.295 289.541C142.477 288.621 143.329 287.343 143.724 285.899L147.834 241.957C149.292 242.617 150.879 242.943 152.479 242.911C155.286 242.839 157.949 241.655 159.883 239.62C161.817 237.585 162.864 234.865 162.793 232.058C162.723 229.252 161.541 226.588 159.507 224.653C157.473 222.717 154.754 221.668 151.948 221.737C151.308 221.735 150.67 221.801 150.045 221.935C149.364 221.199 148.537 220.614 147.617 220.217C146.697 219.82 145.704 219.62 144.702 219.63L100.033 220.783C99.6622 220.797 99.2935 220.843 98.9309 220.92C97.9513 221.103 97.0222 221.493 96.2061 222.065C95.39 222.637 94.7058 223.377 94.1997 224.235C93.6936 225.093 93.3772 226.05 93.2719 227.041C93.1666 228.032 93.2747 229.034 93.5891 229.979L101.351 287.003ZM148.677 238.973L151.601 228.502C151.933 227.292 151.941 226.016 151.623 224.803C151.765 224.802 151.89 224.735 152.032 224.735C154.037 224.693 155.977 225.448 157.426 226.835C158.874 228.221 159.715 230.126 159.761 232.131C159.808 234.135 159.058 236.077 157.676 237.53C156.293 238.983 154.391 239.828 152.387 239.88C151.09 239.921 149.808 239.607 148.677 238.973Z" fill="#2F2E41"/>
<path d="M98.9309 220.92C99.8826 226.361 110.582 230.187 123.447 229.522C135.278 228.977 144.951 224.823 146.724 219.899C146.068 219.705 145.386 219.614 144.702 219.63L100.033 220.783C99.6622 220.797 99.2935 220.843 98.9309 220.92Z" fill="#3F3D56"/>
<path d="M125.805 262.856C125.864 262.842 125.92 262.817 125.971 262.784L132.277 258.656C132.353 258.606 132.416 258.538 132.459 258.458C132.503 258.378 132.526 258.289 132.526 258.198C132.526 258.107 132.503 258.017 132.46 257.937C132.416 257.857 132.354 257.789 132.278 257.739L125.723 253.446C125.663 253.406 125.595 253.379 125.524 253.365C125.453 253.351 125.381 253.352 125.31 253.366C125.239 253.381 125.172 253.409 125.113 253.45C125.053 253.49 125.002 253.542 124.962 253.602C124.923 253.663 124.896 253.73 124.882 253.801C124.869 253.872 124.87 253.945 124.884 254.016C124.899 254.086 124.928 254.153 124.969 254.213C125.009 254.272 125.062 254.323 125.122 254.362L130.977 258.197L125.371 261.867C125.262 261.938 125.182 262.045 125.145 262.169C125.109 262.293 125.117 262.427 125.169 262.545C125.221 262.664 125.314 262.761 125.43 262.818C125.547 262.875 125.68 262.888 125.805 262.856Z" fill="#732AEB"/>
<path d="M115.845 263.316C115.951 263.289 116.046 263.231 116.119 263.15C116.192 263.069 116.238 262.967 116.253 262.859C116.268 262.751 116.25 262.641 116.202 262.543C116.154 262.445 116.078 262.364 115.983 262.309L110.17 258.977L115.788 254.803C115.846 254.76 115.895 254.706 115.932 254.645C115.969 254.583 115.993 254.515 116.004 254.443C116.014 254.372 116.011 254.3 115.993 254.23C115.975 254.16 115.944 254.095 115.901 254.037C115.859 253.979 115.805 253.93 115.743 253.894C115.681 253.857 115.613 253.832 115.542 253.822C115.471 253.811 115.398 253.815 115.328 253.832C115.259 253.85 115.193 253.881 115.135 253.924L108.845 258.597C108.772 258.651 108.713 258.722 108.675 258.805C108.636 258.887 108.619 258.978 108.624 259.069C108.629 259.159 108.657 259.248 108.705 259.325C108.753 259.402 108.82 259.466 108.899 259.512L115.438 263.26C115.561 263.331 115.707 263.351 115.845 263.316Z" fill="#732AEB"/>
<path d="M125.178 266.474C125.231 266.461 125.282 266.439 125.328 266.411C125.39 266.373 125.443 266.324 125.486 266.266C125.528 266.208 125.559 266.142 125.576 266.072C125.593 266.002 125.596 265.929 125.585 265.858C125.574 265.787 125.549 265.719 125.512 265.657L116.572 250.96C116.496 250.836 116.374 250.748 116.233 250.714C116.092 250.68 115.944 250.703 115.82 250.779C115.696 250.854 115.607 250.976 115.573 251.116C115.538 251.257 115.561 251.406 115.636 251.53L124.575 266.228C124.636 266.328 124.728 266.406 124.836 266.45C124.945 266.494 125.064 266.503 125.178 266.474Z" fill="#732AEB"/>
<path d="M253.868 86.8485C256.196 103.412 265.004 118.373 278.357 128.446C291.71 138.518 308.515 142.878 325.08 140.567C341.646 138.256 356.616 129.463 366.703 116.12C376.789 102.778 381.165 85.9768 378.871 69.409L378.746 68.5136C376.077 52.1693 367.089 37.5292 353.723 27.7515C340.357 17.9739 323.682 13.8423 307.297 16.248C290.912 18.6538 276.129 27.404 266.137 40.6112C256.146 53.8184 251.746 70.4239 253.887 86.8458L253.868 86.8485Z" fill="#FDE2CF"/>
<path d="M309.5 139.03C306.237 132.458 302.885 125.401 303.771 118.118C304.657 110.834 311.774 103.851 318.793 105.991C322.989 107.271 326.172 111.4 330.555 111.598C336.586 111.869 340.021 104.956 341.878 99.2117L349.444 75.817C364.038 87.2817 345.556 75.2625 363.633 71.0656C370.725 69.4192 377.885 66.2313 382.028 60.2446C386.172 54.2579 386.115 44.9932 380.39 40.4958C377.583 38.2906 373.853 37.4617 371.169 35.1076C369.505 33.6472 368.354 31.6897 367.888 29.5247C367.422 27.3597 367.666 25.1022 368.583 23.0863C369.5 21.0705 371.041 19.4034 372.979 18.3317C374.917 17.26 377.149 16.8406 379.343 17.1357L360.088 14.7946L365.788 4.40335C361.667 7.67463 355.917 8.13194 350.736 7.21687C345.554 6.30181 340.67 4.18601 335.599 2.78105C311.257 -3.96362 283.032 7.99972 270.95 30.183C266.209 28.6173 261.103 28.5292 256.31 29.9306C251.517 31.3319 247.263 34.1565 244.112 38.03C238.981 44.5869 237.609 53.3186 237.438 61.6425C237.118 78.0549 240.751 94.3033 248.029 109.017C250.298 113.59 252.979 118.075 256.835 121.42C260.691 124.765 304.268 143.293 309.297 142.42" fill="#151515"/>
</svg>
