<svg width="31" height="35" viewBox="0 0 31 35" fill="none" xmlns="http://www.w3.org/2000/svg">
<g clip-path="url(#clip0_3_12)">
<path d="M27.1721 2.18475H3.26065C1.4605 2.18475 0 3.65265 0 5.46193V29.4945C0 31.3038 1.4605 32.7717 3.26065 32.7717H27.1721C28.9722 32.7717 30.4327 31.3038 30.4327 29.4945V5.46193C30.4327 3.65265 28.9722 2.18475 27.1721 2.18475ZM18.837 28.3817C18.2664 28.4841 18.0559 28.129 18.0559 27.8355C18.0559 27.4668 18.0694 25.5824 18.0694 24.0599C18.0694 22.9948 17.7162 22.3189 17.3018 21.9639C19.8152 21.6839 22.4645 21.3357 22.4645 16.973C22.4645 15.7304 22.023 15.1091 21.3029 14.3103C21.4184 14.0167 21.8056 12.8083 21.1874 11.2379C20.2432 10.9444 18.083 12.4601 18.083 12.4601C17.1863 12.2074 16.2149 12.0777 15.2571 12.0777C14.2993 12.0777 13.3279 12.2074 12.4312 12.4601C12.4312 12.4601 10.271 10.9444 9.32682 11.2379C8.70865 12.8014 9.08906 14.0099 9.21134 14.3103C8.49128 15.1091 8.15163 15.7304 8.15163 16.973C8.15163 21.3153 10.6854 21.6839 13.1988 21.9639C12.8728 22.2574 12.5807 22.7627 12.4788 23.4864C11.8334 23.78 10.1827 24.2852 9.19775 22.5374C8.57959 21.4586 7.46553 21.3699 7.46553 21.3699C6.36506 21.3562 7.39081 22.0663 7.39081 22.0663C8.12445 22.4076 8.64072 23.7185 8.64072 23.7185C9.29965 25.7463 12.4516 25.0635 12.4516 25.0635C12.4516 26.0125 12.4652 27.5555 12.4652 27.8355C12.4652 28.129 12.2614 28.4841 11.684 28.3817C7.2006 26.8728 4.06223 22.5852 4.06223 17.5738C4.06223 11.3062 8.83093 6.54749 15.0669 6.54749C21.3029 6.54749 26.3569 11.3062 26.3569 17.5738C26.3637 22.5852 23.3204 26.8796 18.837 28.3817ZM12.1731 24.2101C12.044 24.2374 11.9218 24.1828 11.9082 24.094C11.8946 23.9916 11.9829 23.9029 12.112 23.8755C12.241 23.8619 12.3633 23.9165 12.3769 24.0053C12.3973 24.094 12.309 24.1828 12.1731 24.2101ZM11.5278 24.1486C11.5278 24.2374 11.4259 24.3125 11.29 24.3125C11.1406 24.3262 11.0387 24.2511 11.0387 24.1486C11.0387 24.0599 11.1406 23.9848 11.2764 23.9848C11.4055 23.9711 11.5278 24.0462 11.5278 24.1486ZM10.5971 24.0735C10.5699 24.1623 10.4341 24.2033 10.3186 24.1623C10.1895 24.135 10.1012 24.0326 10.1284 23.9438C10.1556 23.8551 10.2914 23.8141 10.4069 23.8414C10.5428 23.8824 10.6311 23.9848 10.5971 24.0735ZM9.76157 23.7049C9.70043 23.78 9.57137 23.7663 9.46947 23.6639C9.36758 23.5751 9.3404 23.4454 9.40833 23.384C9.46947 23.3089 9.59854 23.3225 9.70043 23.4249C9.78874 23.5137 9.82271 23.6502 9.76157 23.7049ZM9.14341 23.0836C9.08227 23.1245 8.96679 23.0836 8.89207 22.9812C8.81734 22.8787 8.81734 22.7627 8.89207 22.7149C8.96679 22.6534 9.08227 22.7012 9.14341 22.8036C9.21813 22.906 9.21813 23.0289 9.14341 23.0836ZM8.70186 22.4213C8.64072 22.4827 8.53883 22.4486 8.4641 22.3803C8.38938 22.2916 8.3758 22.1892 8.43693 22.1414C8.49807 22.0799 8.59997 22.1141 8.67469 22.1823C8.74941 22.2711 8.763 22.3735 8.70186 22.4213ZM8.24673 21.9161C8.21956 21.9775 8.13125 21.9912 8.05652 21.9434C7.96821 21.9024 7.92746 21.8273 7.95463 21.7659C7.9818 21.7249 8.05652 21.7044 8.14483 21.7386C8.23314 21.7863 8.2739 21.8615 8.24673 21.9161Z" fill="#732AEB"/>
</g>
<defs>
<clipPath id="clip0_3_12">
<rect width="30.4327" height="34.9565" fill="white"/>
</clipPath>
</defs>
</svg>
