<svg width="392" height="299" viewBox="0 0 392 299" fill="none" xmlns="http://www.w3.org/2000/svg">
<path d="M9 11.4319V249.555C9.0024 252.59 10.2097 255.5 12.3568 257.645C14.5039 259.791 17.4153 260.998 20.4517 261H373.548C376.585 260.998 379.496 259.791 381.643 257.645C383.79 255.5 384.998 252.59 385 249.555V11.4319C384.993 8.40002 383.784 5.49454 381.637 3.35184C379.491 1.20913 376.582 0.00384819 373.548 0H20.4517C17.4179 0.00387008 14.5093 1.20916 12.3629 3.35186C10.2164 5.49456 9.00722 8.40003 9 11.4319Z" fill="#151515"/>
<path d="M17 14.1425V246.87C17.0028 248.495 17.6495 250.053 18.7985 251.202C19.9474 252.35 21.5049 252.997 23.1298 253H370.87C372.495 252.997 374.053 252.35 375.202 251.202C376.35 250.053 376.997 248.495 377 246.87V14.1425C377 12.5157 376.354 10.9553 375.205 9.80379C374.056 8.65224 372.497 8.00353 370.87 8H23.1298C21.5029 8.00355 19.9439 8.65224 18.7948 9.80379C17.6456 10.9553 17.0002 12.5157 17 14.1425Z" fill="white"/>
<path d="M1.56424 296.401C2.21109 297.217 3.0333 297.874 3.96912 298.324C4.90495 298.774 5.93006 299.005 6.96746 299H385.052C386.086 298.999 387.106 298.766 388.039 298.318C388.973 297.87 389.795 297.219 390.446 296.412C391.097 295.605 391.562 294.662 391.805 293.651C392.048 292.641 392.064 291.589 391.852 290.572L385.983 262.549C385.74 261.406 385.216 260.342 384.459 259.455C383.703 258.568 382.737 257.885 381.651 257.468C380.865 257.158 380.027 256.999 379.182 257H12.8132C11.9684 256.999 11.1309 257.158 10.3445 257.468C9.25819 257.885 8.29278 258.568 7.53619 259.455C6.77959 260.342 6.25583 261.406 6.01264 262.549L0.1436 290.572C-0.0652365 291.589 -0.0460732 292.639 0.199665 293.648C0.445403 294.656 0.911553 295.597 1.56424 296.401Z" fill="#151515"/>
<path d="M365.418 269H376.582C376.813 269 377 268.818 377 268.594V262.406C377 262.182 376.813 262 376.582 262H365.418C365.187 262 365 262.182 365 262.406V268.594C365 268.818 365.187 269 365.418 269Z" fill="#732AEB"/>
<path d="M342.383 269H352.617C352.829 269 353 268.818 353 268.594V262.406C353 262.182 352.829 262 352.617 262H342.383C342.171 262 342 262.182 342 262.406V268.594C342 268.818 342.171 269 342.383 269Z" fill="#732AEB"/>
<path d="M319.383 269H329.617C329.829 269 330 268.818 330 268.594V262.406C330 262.182 329.829 262 329.617 262H319.383C319.171 262 319 262.182 319 262.406V268.594C319 268.818 319.171 269 319.383 269Z" fill="#732AEB"/>
<path d="M295.418 269H306.582C306.813 269 307 268.818 307 268.594V262.406C307 262.182 306.813 262 306.582 262H295.418C295.187 262 295 262.182 295 262.406V268.594C295 268.818 295.187 269 295.418 269Z" fill="#732AEB"/>
<path d="M272.418 269H283.582C283.813 269 284 268.818 284 268.594V262.406C284 262.182 283.813 262 283.582 262H272.418C272.187 262 272 262.182 272 262.406V268.594C272 268.818 272.187 269 272.418 269Z" fill="#732AEB"/>
<path d="M249.383 269H259.617C259.829 269 260 268.818 260 268.594V262.406C260 262.182 259.829 262 259.617 262H249.383C249.171 262 249 262.182 249 262.406V268.594C249 268.818 249.171 269 249.383 269Z" fill="#732AEB"/>
<path d="M225.418 269H236.582C236.813 269 237 268.818 237 268.594V262.406C237 262.182 236.813 262 236.582 262H225.418C225.187 262 225 262.182 225 262.406V268.594C225 268.818 225.187 269 225.418 269Z" fill="#732AEB"/>
<path d="M202.418 269H213.582C213.813 269 214 268.818 214 268.594V262.406C214 262.182 213.813 262 213.582 262H202.418C202.187 262 202 262.182 202 262.406V268.594C202 268.818 202.187 269 202.418 269Z" fill="#732AEB"/>
<path d="M179.383 269H189.617C189.829 269 190 268.818 190 268.594V262.406C190 262.182 189.829 262 189.617 262H179.383C179.171 262 179 262.182 179 262.406V268.594C179 268.818 179.171 269 179.383 269Z" fill="#732AEB"/>
<path d="M155.418 269H166.582C166.813 269 167 268.818 167 268.594V262.406C167 262.182 166.813 262 166.582 262H155.418C155.187 262 155 262.182 155 262.406V268.594C155 268.818 155.187 269 155.418 269Z" fill="#732AEB"/>
<path d="M132.418 269H143.582C143.813 269 144 268.818 144 268.594V262.406C144 262.182 143.813 262 143.582 262H132.418C132.187 262 132 262.182 132 262.406V268.594C132 268.818 132.187 269 132.418 269Z" fill="#732AEB"/>
<path d="M109.383 269H119.617C119.829 269 120 268.818 120 268.594V262.406C120 262.182 119.829 262 119.617 262H109.383C109.171 262 109 262.182 109 262.406V268.594C109 268.818 109.171 269 109.383 269Z" fill="#732AEB"/>
<path d="M85.4177 269H96.5824C96.813 269 97 268.818 97 268.594V262.406C97 262.182 96.813 262 96.5824 262H85.4177C85.187 262 85 262.182 85 262.406V268.594C85 268.818 85.187 269 85.4177 269Z" fill="#732AEB"/>
<path d="M62.4176 269H73.5824C73.813 269 74 268.818 74 268.594V262.406C74 262.182 73.813 262 73.5824 262H62.4176C62.187 262 62 262.182 62 262.406V268.594C62 268.818 62.187 269 62.4176 269Z" fill="#732AEB"/>
<path d="M39.3828 269H49.6172C49.8286 269 50 268.818 50 268.594V262.406C50 262.182 49.8286 262 49.6172 262H39.3828C39.1714 262 39 262.182 39 262.406V268.594C39 268.818 39.1714 269 39.3828 269Z" fill="#732AEB"/>
<path d="M16.3828 269H26.6172C26.8286 269 27 268.818 27 268.594V262.406C27 262.182 26.8286 262 26.6172 262H16.3828C16.1714 262 16 262.182 16 262.406V268.594C16 268.818 16.1714 269 16.3828 269Z" fill="#732AEB"/>
<path d="M365.418 281H376.582C376.813 281 377 280.818 377 280.594V274.406C377 274.182 376.813 274 376.582 274H365.418C365.187 274 365 274.182 365 274.406V280.594C365 280.818 365.187 281 365.418 281Z" fill="#732AEB"/>
<path d="M342.418 281H353.582C353.813 281 354 280.818 354 280.594V274.406C354 274.182 353.813 274 353.582 274H342.418C342.187 274 342 274.182 342 274.406V280.594C342 280.818 342.187 281 342.418 281Z" fill="#732AEB"/>
<path d="M319.383 281H329.617C329.829 281 330 280.818 330 280.594V274.406C330 274.182 329.829 274 329.617 274H319.383C319.171 274 319 274.182 319 274.406V280.594C319 280.818 319.171 281 319.383 281Z" fill="#732AEB"/>
<path d="M295.418 281H306.582C306.813 281 307 280.818 307 280.594V274.406C307 274.182 306.813 274 306.582 274H295.418C295.187 274 295 274.182 295 274.406V280.594C295 280.818 295.187 281 295.418 281Z" fill="#732AEB"/>
<path d="M272.418 281H283.582C283.813 281 284 280.818 284 280.594V274.406C284 274.182 283.813 274 283.582 274H272.418C272.187 274 272 274.182 272 274.406V280.594C272 280.818 272.187 281 272.418 281Z" fill="#732AEB"/>
<path d="M249.418 281H260.582C260.813 281 261 280.818 261 280.594V274.406C261 274.182 260.813 274 260.582 274H249.418C249.187 274 249 274.182 249 274.406V280.594C249 280.818 249.187 281 249.418 281Z" fill="#732AEB"/>
<path d="M226.383 281H236.617C236.829 281 237 280.818 237 280.594V274.406C237 274.182 236.829 274 236.617 274H226.383C226.171 274 226 274.182 226 274.406V280.594C226 280.818 226.171 281 226.383 281Z" fill="#732AEB"/>
<path d="M202.418 281H213.582C213.813 281 214 280.818 214 280.594V274.406C214 274.182 213.813 274 213.582 274H202.418C202.187 274 202 274.182 202 274.406V280.594C202 280.818 202.187 281 202.418 281Z" fill="#732AEB"/>
<path d="M179.418 281H190.582C190.813 281 191 280.818 191 280.594V274.406C191 274.182 190.813 274 190.582 274H179.418C179.187 274 179 274.182 179 274.406V280.594C179 280.818 179.187 281 179.418 281Z" fill="#732AEB"/>
<path d="M156.383 281H166.617C166.829 281 167 280.818 167 280.594V274.406C167 274.182 166.829 274 166.617 274H156.383C156.171 274 156 274.182 156 274.406V280.594C156 280.818 156.171 281 156.383 281Z" fill="#732AEB"/>
<path d="M132.418 281H143.582C143.813 281 144 280.818 144 280.594V274.406C144 274.182 143.813 274 143.582 274H132.418C132.187 274 132 274.182 132 274.406V280.594C132 280.818 132.187 281 132.418 281Z" fill="#732AEB"/>
<path d="M109.418 281H120.582C120.813 281 121 280.818 121 280.594V274.406C121 274.182 120.813 274 120.582 274H109.418C109.187 274 109 274.182 109 274.406V280.594C109 280.818 109.187 281 109.418 281Z" fill="#732AEB"/>
<path d="M86.3828 281H96.6171C96.8286 281 97 280.818 97 280.594V274.406C97 274.182 96.8286 274 96.6171 274H86.3828C86.1714 274 86 274.182 86 274.406V280.594C86 280.818 86.1714 281 86.3828 281Z" fill="#732AEB"/>
<path d="M62.4177 281H73.5824C73.813 281 74 280.818 74 280.594V274.406C74 274.182 73.813 274 73.5824 274H62.4177C62.187 274 62 274.182 62 274.406V280.594C62 280.818 62.187 281 62.4177 281Z" fill="#732AEB"/>
<path d="M39.4176 281H50.5824C50.813 281 51 280.818 51 280.594V274.406C51 274.182 50.813 274 50.5824 274H39.4176C39.187 274 39 274.182 39 274.406V280.594C39 280.818 39.187 281 39.4176 281Z" fill="#732AEB"/>
<path d="M16.3828 281H26.6172C26.8286 281 27 280.818 27 280.594V274.406C27 274.182 26.8286 274 26.6172 274H16.3828C16.1714 274 16 274.182 16 274.406V280.594C16 280.818 16.1714 281 16.3828 281Z" fill="#732AEB"/>
<path d="M146.405 295H238.595C238.819 295 239 294.818 239 294.594V288.406C239 288.182 238.819 288 238.595 288H146.405C146.181 288 146 288.182 146 288.406V294.594C146 294.818 146.181 295 146.405 295Z" fill="#732AEB"/>
<path d="M358.173 50H35.8267C35.6058 49.9971 35.3955 49.9432 35.241 49.8497C35.0865 49.7563 35 49.6307 35 49.5C35 49.3693 35.0865 49.2437 35.241 49.1503C35.3955 49.0568 35.6058 49.0029 35.8267 49H358.173C358.394 49.0029 358.604 49.0568 358.759 49.1503C358.913 49.2437 359 49.3693 359 49.5C359 49.6307 358.913 49.7563 358.759 49.8497C358.604 49.9432 358.394 49.9971 358.173 50Z" fill="#CACACA"/>
<path d="M55 39C59.9706 39 64 34.7467 64 29.5C64 24.2533 59.9706 20 55 20C50.0294 20 46 24.2533 46 29.5C46 34.7467 50.0294 39 55 39Z" fill="#151515"/>
<path d="M86 39C90.9706 39 95 34.7467 95 29.5C95 24.2533 90.9706 20 86 20C81.0294 20 77 24.2533 77 29.5C77 34.7467 81.0294 39 86 39Z" fill="#151515"/>
<path d="M117.5 39C122.747 39 127 34.7467 127 29.5C127 24.2533 122.747 20 117.5 20C112.253 20 108 24.2533 108 29.5C108 34.7467 112.253 39 117.5 39Z" fill="#151515"/>
<path d="M339.319 22H316.68C316.232 22.0104 315.804 22.2257 315.49 22.5996C315.176 22.9736 315 23.4763 315 24C315 24.5237 315.176 25.0264 315.49 25.4004C315.804 25.7743 316.232 25.9896 316.68 26H339.319C339.768 25.9896 340.196 25.7743 340.51 25.4004C340.824 25.0264 341 24.5237 341 24C341 23.4763 340.824 22.9736 340.51 22.5996C340.196 22.2257 339.768 22.0104 339.319 22Z" fill="#151515"/>
<path d="M339.319 29H316.68C316.232 29.0078 315.804 29.1693 315.49 29.4497C315.176 29.7302 315 30.1073 315 30.5C315 30.8927 315.176 31.2698 315.49 31.5503C315.804 31.8307 316.232 31.9922 316.68 32H339.319C339.768 31.9922 340.196 31.8307 340.51 31.5503C340.824 31.2698 341 30.8927 341 30.5C341 30.1073 340.824 29.7302 340.51 29.4497C340.196 29.1693 339.768 29.0078 339.319 29Z" fill="#151515"/>
<path d="M339.319 35H316.68C316.232 35.0078 315.804 35.1693 315.49 35.4497C315.176 35.7302 315 36.1073 315 36.5C315 36.8927 315.176 37.2698 315.49 37.5503C315.804 37.8307 316.232 37.9922 316.68 38H339.319C339.768 37.9922 340.196 37.8307 340.51 37.5503C340.824 37.2698 341 36.8927 341 36.5C341 36.1073 340.824 35.7302 340.51 35.4497C340.196 35.1693 339.768 35.0078 339.319 35Z" fill="#151515"/>
<g clip-path="url(#clip0_9_486)">
<path d="M222.797 100.707C211.636 98.9332 198.927 97.9869 185.691 97.9869C173.578 97.9869 161.907 98.7782 151.462 100.27C151.465 100.111 151.467 99.9509 151.474 99.7912C151.751 90.5215 155.659 81.7273 162.362 75.2883C169.065 68.8493 178.032 65.2763 187.346 65.3329C196.66 65.3896 205.582 69.0714 212.206 75.5915C218.83 82.1116 222.629 90.9527 222.792 100.225C222.795 100.387 222.797 100.547 222.797 100.707Z" fill="#732AEB"/>
<g opacity="0.1">
<path d="M191.808 65.3197C186.854 64.6535 181.815 65.0311 177.017 66.428C172.219 67.8249 167.769 70.21 163.957 73.4287C160.144 76.6474 157.053 80.6278 154.884 85.112C152.715 89.5962 151.517 94.4842 151.366 99.459C151.359 99.6187 151.357 99.7784 151.354 99.9381C154.457 99.4948 157.671 99.1149 160.97 98.7977C161.373 90.5099 164.678 82.6241 170.311 76.509C175.944 70.3938 183.549 66.435 191.808 65.3197Z" fill="white"/>
</g>
<path d="M238.401 103.524C233.263 102.137 228.052 101.036 222.792 100.225C214.171 98.8949 205.479 98.0632 196.761 97.7343C193.129 97.5865 189.43 97.5103 185.691 97.5103C182.727 97.5103 179.787 97.5579 176.888 97.6533C168.384 97.9034 159.9 98.6172 151.474 99.7913C145.237 100.646 139.06 101.893 132.981 103.524C118.807 107.426 111 112.655 111 118.247C111 123.839 118.807 129.068 132.981 132.97C142.95 135.716 155.24 137.587 168.632 138.445C174.159 138.803 179.874 138.984 185.691 138.984C191.527 138.984 197.261 138.801 202.805 138.443C214.993 137.659 226.268 136.036 235.705 133.676C235.755 133.662 235.803 133.65 235.854 133.638C236.49 133.48 237.118 133.316 237.738 133.151C237.96 133.09 238.18 133.03 238.401 132.97C238.413 132.965 238.426 132.961 238.439 132.958C238.65 132.901 238.858 132.842 239.066 132.784C239.483 132.665 239.895 132.548 240.299 132.427C240.318 132.422 240.335 132.417 240.352 132.413C240.704 132.308 241.048 132.203 241.391 132.098C241.671 132.01 241.949 131.924 242.224 131.836C242.425 131.771 242.624 131.707 242.82 131.643C242.964 131.595 243.105 131.55 243.244 131.502C243.433 131.44 243.622 131.376 243.809 131.311C243.888 131.285 243.967 131.259 244.043 131.23C244.223 131.171 244.398 131.109 244.572 131.047C244.761 130.98 244.951 130.911 245.137 130.844C245.293 130.789 245.448 130.732 245.602 130.675C245.731 130.625 245.858 130.577 245.987 130.53C246.339 130.398 246.684 130.263 247.024 130.129C247.194 130.06 247.364 129.993 247.531 129.924C247.696 129.857 247.864 129.788 248.027 129.719C248.295 129.607 248.558 129.495 248.817 129.383C248.941 129.326 249.068 129.271 249.19 129.219C249.284 129.176 249.375 129.135 249.468 129.092C249.535 129.064 249.602 129.033 249.667 129.002C249.908 128.892 250.148 128.78 250.382 128.668C251.283 128.239 252.123 127.8 252.903 127.352C257.799 124.561 260.382 121.465 260.382 118.247C260.382 112.655 252.575 107.426 238.401 103.524ZM238.271 132.513C228.291 135.261 215.967 137.132 202.539 137.983C197.079 138.329 191.434 138.507 185.691 138.507C179.967 138.507 174.341 138.331 168.897 137.985C155.448 137.137 143.105 135.266 133.11 132.513C119.161 128.67 111.479 123.605 111.479 118.247C111.48 117.774 111.539 117.302 111.656 116.843C112.877 112.009 120.387 107.485 133.11 103.982C139.144 102.363 145.273 101.124 151.462 100.27C159.939 99.0896 168.474 98.3735 177.03 98.1252C179.883 98.0322 182.77 97.9862 185.691 97.987C189.38 97.987 193.028 98.0609 196.614 98.2039C205.383 98.5299 214.126 99.3655 222.797 100.707C228.012 101.514 233.178 102.607 238.271 103.982C250.993 107.485 258.5 112.007 259.724 116.838C259.842 117.299 259.903 117.772 259.903 118.247C259.903 123.605 252.221 128.67 238.271 132.513Z" fill="#3F3D56"/>
<path d="M260.245 118.464C260.245 121.648 257.61 124.661 252.903 127.352C252.12 127.8 251.278 128.239 250.382 128.668C250.148 128.78 249.908 128.892 249.667 129.002C249.602 129.033 249.535 129.064 249.468 129.092C249.375 129.135 249.284 129.176 249.19 129.219C249.068 129.271 248.941 129.326 248.817 129.383C248.558 129.495 248.295 129.607 248.027 129.719C247.864 129.788 247.696 129.857 247.531 129.924C247.364 129.993 247.194 130.06 247.024 130.129C246.684 130.263 246.339 130.398 245.987 130.53C245.858 130.577 245.731 130.625 245.602 130.675C245.448 130.732 245.293 130.789 245.137 130.844C244.951 130.911 244.761 130.98 244.572 131.047C244.398 131.109 244.223 131.171 244.043 131.23C243.967 131.259 243.888 131.285 243.809 131.311C243.622 131.376 243.433 131.44 243.244 131.502C243.105 131.55 242.964 131.595 242.82 131.643C242.624 131.707 242.425 131.771 242.224 131.836C241.949 131.924 241.671 132.01 241.391 132.098C241.048 132.203 240.704 132.308 240.352 132.413C240.335 132.417 240.318 132.422 240.299 132.427C239.895 132.548 239.483 132.665 239.066 132.784C238.858 132.842 238.65 132.901 238.439 132.958C238.426 132.961 238.413 132.965 238.401 132.97C238.18 133.03 237.96 133.09 237.738 133.151C237.12 133.314 236.49 133.478 235.854 133.638C235.803 133.65 235.755 133.662 235.705 133.676C226.524 135.959 215.261 137.623 202.796 138.426C197.335 138.777 191.642 138.963 185.794 138.963C179.893 138.963 174.152 138.774 168.648 138.417C135.794 136.283 111.342 128.16 111.342 118.464C111.345 117.874 111.435 117.288 111.61 116.724C111.625 116.765 111.639 116.803 111.656 116.843C115.072 125.777 139.316 132.997 170.772 134.758C175.591 135.03 180.582 135.17 185.691 135.17C190.821 135.17 195.832 135.027 200.67 134.756C232.1 132.987 256.319 125.765 259.724 116.838C259.781 116.695 259.831 116.552 259.874 116.409C260.117 117.068 260.243 117.763 260.245 118.464Z" fill="#3F3D56"/>
<path d="M132.945 115.898C128.961 115.898 124.727 115.045 124.727 113.463C124.727 111.881 128.961 111.028 132.945 111.028C136.929 111.028 141.164 111.881 141.164 113.463C141.164 115.045 136.929 115.898 132.945 115.898ZM132.945 111.505C128.384 111.505 125.205 112.537 125.205 113.463C125.205 114.389 128.384 115.422 132.945 115.422C137.506 115.422 140.685 114.389 140.685 113.463C140.685 112.537 137.506 111.505 132.945 111.505Z" fill="#3F3D56"/>
<path d="M149.942 127.101C145.958 127.101 141.724 126.248 141.724 124.666C141.724 123.084 145.958 122.231 149.942 122.231C153.926 122.231 158.161 123.084 158.161 124.666C158.161 126.248 153.926 127.101 149.942 127.101ZM149.942 122.707C145.381 122.707 142.202 123.74 142.202 124.666C142.202 125.592 145.381 126.624 149.942 126.624C154.503 126.624 157.682 125.592 157.682 124.666C157.682 123.74 154.503 122.707 149.942 122.707Z" fill="#3F3D56"/>
<path d="M238.278 115.898C234.294 115.898 230.06 115.045 230.06 113.463C230.06 111.881 234.294 111.028 238.278 111.028C242.263 111.028 246.497 111.881 246.497 113.463C246.497 115.045 242.263 115.898 238.278 115.898ZM238.278 111.505C233.717 111.505 230.539 112.537 230.539 113.463C230.539 114.389 233.717 115.422 238.278 115.422C242.84 115.422 246.018 114.389 246.018 113.463C246.018 112.537 242.84 111.505 238.278 111.505Z" fill="#3F3D56"/>
<path d="M221.281 127.101C217.297 127.101 213.063 126.248 213.063 124.666C213.063 123.084 217.297 122.231 221.281 122.231C225.266 122.231 229.5 123.084 229.5 124.666C229.5 126.248 225.266 127.101 221.281 127.101ZM221.281 122.707C216.72 122.707 213.542 123.74 213.542 124.666C213.542 125.592 216.72 126.624 221.281 126.624C225.843 126.624 229.021 125.592 229.021 124.666C229.021 123.74 225.843 122.707 221.281 122.707Z" fill="#3F3D56"/>
<path d="M185.612 132.345C181.628 132.345 177.393 131.491 177.393 129.91C177.393 128.328 181.628 127.474 185.612 127.474C189.596 127.474 193.83 128.328 193.83 129.91C193.83 131.491 189.596 132.345 185.612 132.345ZM185.612 127.951C181.051 127.951 177.872 128.983 177.872 129.91C177.872 130.836 181.051 131.868 185.612 131.868C190.173 131.868 193.352 130.836 193.352 129.91C193.352 128.983 190.173 127.951 185.612 127.951Z" fill="#3F3D56"/>
<path d="M191.67 182.442C197.225 182.442 201.728 177.958 201.728 172.428C201.728 166.897 197.225 162.414 191.67 162.414C186.116 162.414 181.613 166.897 181.613 172.428C181.613 177.958 186.116 182.442 191.67 182.442Z" fill="#2F2E41"/>
<path d="M187.846 179.007L182.951 181.448L184.319 184.168L189.214 181.727L187.846 179.007Z" fill="#2F2E41"/>
<path d="M184.965 183.892C185.255 183.453 184.538 182.473 183.364 181.702C182.19 180.932 181.003 180.662 180.713 181.101C180.423 181.539 181.139 182.519 182.313 183.29C183.487 184.061 184.674 184.33 184.965 183.892Z" fill="#2F2E41"/>
<path d="M195.495 179.007L194.127 181.727L199.022 184.168L200.39 181.448L195.495 179.007Z" fill="#2F2E41"/>
<path d="M201.028 183.29C202.202 182.519 202.918 181.539 202.628 181.101C202.338 180.662 201.151 180.932 199.977 181.702C198.803 182.473 198.086 183.453 198.376 183.892C198.667 184.33 199.854 184.06 201.028 183.29Z" fill="#2F2E41"/>
<path d="M190.966 173.401C192.865 173.401 194.404 171.868 194.404 169.978C194.404 168.088 192.865 166.556 190.966 166.556C189.068 166.556 187.529 168.088 187.529 169.978C187.529 171.868 189.068 173.401 190.966 173.401Z" fill="white"/>
<path d="M191.803 169.322C192.248 168.878 192.246 168.157 191.797 167.71C191.348 167.263 190.623 167.26 190.177 167.704C189.732 168.148 189.734 168.87 190.183 169.316C190.632 169.763 191.357 169.766 191.803 169.322Z" fill="#3F3D56"/>
<path d="M199.604 161.534C199.756 157.826 196.547 154.686 192.437 154.52C188.327 154.354 184.873 157.224 184.721 160.932C184.57 164.639 187.427 165.481 191.537 165.648C195.647 165.814 199.453 165.241 199.604 161.534Z" fill="#732AEB"/>
<path d="M205.402 177.671C206.063 177.106 205.133 174.947 203.324 172.848C201.515 170.75 199.512 169.508 198.851 170.073C198.189 170.639 199.119 172.798 200.928 174.896C202.737 176.994 204.74 178.237 205.402 177.671Z" fill="#2F2E41"/>
<path d="M182.441 174.896C184.25 172.798 185.18 170.639 184.518 170.073C183.857 169.508 181.854 170.75 180.045 172.848C178.236 174.947 177.306 177.106 177.967 177.671C178.629 178.237 180.632 176.994 182.441 174.896Z" fill="#2F2E41"/>
<path d="M194.433 176.374C194.542 176.969 194.408 177.583 194.063 178.081C193.717 178.579 193.187 178.919 192.589 179.027C191.991 179.136 191.374 179.003 190.874 178.659C190.374 178.315 190.033 177.787 189.924 177.191L189.923 177.187C189.697 175.947 190.66 175.508 191.906 175.284C193.151 175.059 194.207 175.134 194.433 176.374Z" fill="white"/>
<path d="M174.679 183.08C174.552 183.08 174.43 183.029 174.34 182.94C174.25 182.851 174.2 182.729 174.2 182.603V154.477C174.2 154.351 174.25 154.229 174.34 154.14C174.43 154.051 174.552 154 174.679 154C174.806 154 174.928 154.051 175.017 154.14C175.107 154.229 175.158 154.351 175.158 154.477V182.603C175.158 182.729 175.107 182.851 175.017 182.94C174.928 183.029 174.806 183.08 174.679 183.08Z" fill="#CCCCCC"/>
<path d="M167.497 208.345C167.37 208.345 167.248 208.295 167.158 208.206C167.069 208.116 167.018 207.995 167.018 207.869V187.37C167.018 187.244 167.069 187.122 167.158 187.033C167.248 186.944 167.37 186.893 167.497 186.893C167.624 186.893 167.746 186.944 167.836 187.033C167.925 187.122 167.976 187.244 167.976 187.37V207.869C167.976 207.995 167.925 208.116 167.836 208.206C167.746 208.295 167.624 208.345 167.497 208.345Z" fill="#CCCCCC"/>
<path d="M185.93 191.422C185.803 191.422 185.682 191.372 185.592 191.282C185.502 191.193 185.452 191.072 185.452 190.945V162.819C185.452 162.693 185.502 162.572 185.592 162.482C185.682 162.393 185.803 162.343 185.93 162.343C186.057 162.343 186.179 162.393 186.269 162.482C186.359 162.572 186.409 162.693 186.409 162.819V190.945C186.409 191.072 186.359 191.193 186.269 191.282C186.179 191.372 186.057 191.422 185.93 191.422Z" fill="#CCCCCC"/>
<path d="M178.988 211.682C178.861 211.682 178.739 211.632 178.649 211.543C178.56 211.453 178.509 211.332 178.509 211.206V199.765C178.509 199.638 178.56 199.517 178.649 199.427C178.739 199.338 178.861 199.288 178.988 199.288C179.115 199.288 179.237 199.338 179.326 199.427C179.416 199.517 179.467 199.638 179.467 199.765V211.206C179.467 211.332 179.416 211.453 179.326 211.543C179.237 211.632 179.115 211.682 178.988 211.682Z" fill="#CCCCCC"/>
<path d="M188.803 153.047C188.676 153.047 188.554 152.997 188.464 152.907C188.375 152.818 188.324 152.697 188.324 152.57V141.129C188.324 141.003 188.375 140.881 188.464 140.792C188.554 140.703 188.676 140.652 188.803 140.652C188.93 140.652 189.052 140.703 189.142 140.792C189.231 140.881 189.282 141.003 189.282 141.129V152.57C189.282 152.697 189.231 152.818 189.142 152.907C189.052 152.997 188.93 153.047 188.803 153.047Z" fill="#CCCCCC"/>
<path d="M164.864 158.052C164.737 158.052 164.615 158.002 164.525 157.913C164.435 157.823 164.385 157.702 164.385 157.576V146.135C164.385 146.008 164.435 145.887 164.525 145.798C164.615 145.708 164.737 145.658 164.864 145.658C164.991 145.658 165.112 145.708 165.202 145.798C165.292 145.887 165.342 146.008 165.342 146.135V157.576C165.342 157.702 165.292 157.823 165.202 157.913C165.112 158.002 164.991 158.052 164.864 158.052Z" fill="#CCCCCC"/>
<path d="M206.518 159.244C206.391 159.244 206.269 159.194 206.18 159.105C206.09 159.015 206.039 158.894 206.039 158.767V147.326C206.039 147.2 206.09 147.079 206.18 146.989C206.269 146.9 206.391 146.85 206.518 146.85C206.645 146.85 206.767 146.9 206.857 146.989C206.947 147.079 206.997 147.2 206.997 147.326V158.767C206.997 158.894 206.947 159.015 206.857 159.105C206.767 159.194 206.645 159.244 206.518 159.244Z" fill="#CCCCCC"/>
<path d="M205.561 194.998C205.434 194.997 205.312 194.947 205.222 194.858C205.132 194.768 205.082 194.647 205.082 194.521V180.696C205.082 180.57 205.132 180.449 205.222 180.359C205.312 180.27 205.434 180.219 205.561 180.219C205.688 180.219 205.809 180.27 205.899 180.359C205.989 180.449 206.039 180.57 206.039 180.696V194.521C206.039 194.647 205.989 194.768 205.899 194.858C205.809 194.947 205.688 194.997 205.561 194.998Z" fill="#CCCCCC"/>
<path d="M195.985 207.154C195.858 207.154 195.736 207.103 195.646 207.014C195.557 206.925 195.506 206.803 195.506 206.677V186.178C195.506 186.052 195.557 185.931 195.646 185.841C195.736 185.752 195.858 185.702 195.985 185.702C196.112 185.702 196.234 185.752 196.323 185.841C196.413 185.931 196.464 186.052 196.464 186.178V206.677C196.464 206.803 196.413 206.925 196.323 207.014C196.234 207.103 196.112 207.154 195.985 207.154Z" fill="#CCCCCC"/>
<path d="M197.9 172.115C197.773 172.115 197.651 172.065 197.561 171.976C197.472 171.886 197.421 171.765 197.421 171.639V143.513C197.421 143.386 197.472 143.265 197.561 143.176C197.651 143.086 197.773 143.036 197.9 143.036C198.027 143.036 198.149 143.086 198.239 143.176C198.328 143.265 198.379 143.386 198.379 143.513V171.639C198.379 171.765 198.328 171.886 198.239 171.976C198.149 172.065 198.027 172.115 197.9 172.115Z" fill="#CCCCCC"/>
<path d="M256.598 231.966C257.283 231.394 256.357 229.169 254.529 226.996C252.702 224.822 250.664 223.524 249.979 224.095C249.294 224.666 250.22 226.891 252.048 229.065C253.875 231.238 255.913 232.537 256.598 231.966Z" fill="#2F2E41"/>
<path d="M252.103 229.494C253.904 224.116 250.985 218.302 245.583 216.509C240.181 214.717 234.342 217.623 232.542 223.002C230.741 228.38 233.66 234.194 239.062 235.986C244.464 237.779 250.303 234.873 252.103 229.494Z" fill="#2F2E41"/>
<path d="M246.686 234.304H243.554V239.892H246.686V234.304Z" fill="#2F2E41"/>
<path d="M240.422 234.304H237.29V239.892H240.422V234.304Z" fill="#2F2E41"/>
<path d="M244.076 240.931C245.518 240.931 246.686 240.495 246.686 239.957C246.686 239.418 245.518 238.982 244.076 238.982C242.635 238.982 241.466 239.418 241.466 239.957C241.466 240.495 242.635 240.931 244.076 240.931Z" fill="#2F2E41"/>
<path d="M237.812 240.801C239.253 240.801 240.422 240.365 240.422 239.827C240.422 239.288 239.253 238.852 237.812 238.852C236.37 238.852 235.202 239.288 235.202 239.827C235.202 240.365 236.37 240.801 237.812 240.801Z" fill="#2F2E41"/>
<path d="M239.085 213.344C240.006 209.653 244.07 207.48 248.162 208.492C252.254 209.504 254.825 213.316 253.905 217.008C252.984 220.699 249.93 220.711 245.837 219.699C241.745 218.688 238.165 217.035 239.085 213.344Z" fill="#CCCCCC"/>
<path d="M235.368 223.684C235.751 222.88 233.976 221.244 231.403 220.029C228.831 218.814 226.435 218.481 226.052 219.285C225.669 220.089 227.444 221.726 230.016 222.94C232.589 224.155 234.985 224.488 235.368 223.684Z" fill="#2F2E41"/>
<path d="M240.781 227.504C242.68 227.504 244.219 225.972 244.219 224.082C244.219 222.192 242.68 220.659 240.781 220.659C238.883 220.659 237.344 222.192 237.344 224.082C237.344 225.972 238.883 227.504 240.781 227.504Z" fill="white"/>
<path d="M239.368 223.996C240.001 223.996 240.514 223.485 240.514 222.855C240.514 222.225 240.001 221.714 239.368 221.714C238.736 221.714 238.223 222.225 238.223 222.855C238.223 223.485 238.736 223.996 239.368 223.996Z" fill="#3F3D56"/>
<path d="M240.752 232.658C241.545 232.658 242.188 232.017 242.188 231.227C242.188 230.438 241.545 229.797 240.752 229.797C239.958 229.797 239.315 230.438 239.315 231.227C239.315 232.017 239.958 232.658 240.752 232.658Z" fill="white"/>
<path d="M271.761 241H215.264C215.2 241 215.139 240.975 215.094 240.93C215.049 240.886 215.024 240.825 215.024 240.762C215.024 240.698 215.049 240.638 215.094 240.593C215.139 240.548 215.2 240.523 215.264 240.523H271.761C271.824 240.523 271.885 240.548 271.93 240.593C271.975 240.638 272 240.698 272 240.762C272 240.825 271.975 240.886 271.93 240.93C271.885 240.975 271.824 241 271.761 241Z" fill="#3F3D56"/>
</g>
<defs>
<clipPath id="clip0_9_486">
<rect width="161" height="176" fill="white" transform="translate(111 65)"/>
</clipPath>
</defs>
</svg>
