<svg width="392" height="299" viewBox="0 0 392 299" fill="none" xmlns="http://www.w3.org/2000/svg">
<path d="M9 11.4319V249.555C9.0024 252.59 10.2097 255.5 12.3568 257.645C14.5039 259.791 17.4153 260.998 20.4517 261H373.548C376.585 260.998 379.496 259.791 381.643 257.645C383.79 255.5 384.998 252.59 385 249.555V11.4319C384.993 8.40002 383.784 5.49454 381.637 3.35184C379.491 1.20913 376.582 0.00384819 373.548 0H20.4517C17.4179 0.00387008 14.5093 1.20916 12.3629 3.35186C10.2164 5.49456 9.00722 8.40003 9 11.4319Z" fill="#151515"/>
<path d="M17 14.1425V246.87C17.0028 248.495 17.6495 250.053 18.7985 251.202C19.9474 252.35 21.5049 252.997 23.1298 253H370.87C372.495 252.997 374.053 252.35 375.202 251.202C376.35 250.053 376.997 248.495 377 246.87V14.1425C377 12.5157 376.354 10.9553 375.205 9.80379C374.056 8.65224 372.497 8.00353 370.87 8H23.1298C21.5029 8.00355 19.9439 8.65224 18.7948 9.80379C17.6456 10.9553 17.0002 12.5157 17 14.1425Z" fill="white"/>
<path d="M1.56424 296.401C2.21109 297.217 3.0333 297.874 3.96912 298.324C4.90495 298.774 5.93006 299.005 6.96746 299H385.052C386.086 298.999 387.106 298.766 388.039 298.318C388.973 297.87 389.795 297.219 390.446 296.412C391.097 295.605 391.562 294.662 391.805 293.651C392.048 292.641 392.064 291.589 391.852 290.572L385.983 262.549C385.74 261.406 385.216 260.342 384.459 259.455C383.703 258.568 382.737 257.885 381.651 257.468C380.865 257.158 380.027 256.999 379.182 257H12.8132C11.9684 256.999 11.1309 257.158 10.3445 257.468C9.25819 257.885 8.29278 258.568 7.53619 259.455C6.77959 260.342 6.25583 261.406 6.01264 262.549L0.1436 290.572C-0.0652365 291.589 -0.0460732 292.639 0.199665 293.648C0.445403 294.656 0.911553 295.597 1.56424 296.401Z" fill="#151515"/>
<path d="M365.418 269H376.582C376.813 269 377 268.818 377 268.594V262.406C377 262.182 376.813 262 376.582 262H365.418C365.187 262 365 262.182 365 262.406V268.594C365 268.818 365.187 269 365.418 269Z" fill="#732AEB"/>
<path d="M342.383 269H352.617C352.829 269 353 268.818 353 268.594V262.406C353 262.182 352.829 262 352.617 262H342.383C342.171 262 342 262.182 342 262.406V268.594C342 268.818 342.171 269 342.383 269Z" fill="#732AEB"/>
<path d="M319.383 269H329.617C329.829 269 330 268.818 330 268.594V262.406C330 262.182 329.829 262 329.617 262H319.383C319.171 262 319 262.182 319 262.406V268.594C319 268.818 319.171 269 319.383 269Z" fill="#732AEB"/>
<path d="M295.418 269H306.582C306.813 269 307 268.818 307 268.594V262.406C307 262.182 306.813 262 306.582 262H295.418C295.187 262 295 262.182 295 262.406V268.594C295 268.818 295.187 269 295.418 269Z" fill="#732AEB"/>
<path d="M272.418 269H283.582C283.813 269 284 268.818 284 268.594V262.406C284 262.182 283.813 262 283.582 262H272.418C272.187 262 272 262.182 272 262.406V268.594C272 268.818 272.187 269 272.418 269Z" fill="#732AEB"/>
<path d="M249.383 269H259.617C259.829 269 260 268.818 260 268.594V262.406C260 262.182 259.829 262 259.617 262H249.383C249.171 262 249 262.182 249 262.406V268.594C249 268.818 249.171 269 249.383 269Z" fill="#732AEB"/>
<path d="M225.418 269H236.582C236.813 269 237 268.818 237 268.594V262.406C237 262.182 236.813 262 236.582 262H225.418C225.187 262 225 262.182 225 262.406V268.594C225 268.818 225.187 269 225.418 269Z" fill="#732AEB"/>
<path d="M202.418 269H213.582C213.813 269 214 268.818 214 268.594V262.406C214 262.182 213.813 262 213.582 262H202.418C202.187 262 202 262.182 202 262.406V268.594C202 268.818 202.187 269 202.418 269Z" fill="#732AEB"/>
<path d="M179.383 269H189.617C189.829 269 190 268.818 190 268.594V262.406C190 262.182 189.829 262 189.617 262H179.383C179.171 262 179 262.182 179 262.406V268.594C179 268.818 179.171 269 179.383 269Z" fill="#732AEB"/>
<path d="M155.418 269H166.582C166.813 269 167 268.818 167 268.594V262.406C167 262.182 166.813 262 166.582 262H155.418C155.187 262 155 262.182 155 262.406V268.594C155 268.818 155.187 269 155.418 269Z" fill="#732AEB"/>
<path d="M132.418 269H143.582C143.813 269 144 268.818 144 268.594V262.406C144 262.182 143.813 262 143.582 262H132.418C132.187 262 132 262.182 132 262.406V268.594C132 268.818 132.187 269 132.418 269Z" fill="#732AEB"/>
<path d="M109.383 269H119.617C119.829 269 120 268.818 120 268.594V262.406C120 262.182 119.829 262 119.617 262H109.383C109.171 262 109 262.182 109 262.406V268.594C109 268.818 109.171 269 109.383 269Z" fill="#732AEB"/>
<path d="M85.4177 269H96.5824C96.813 269 97 268.818 97 268.594V262.406C97 262.182 96.813 262 96.5824 262H85.4177C85.187 262 85 262.182 85 262.406V268.594C85 268.818 85.187 269 85.4177 269Z" fill="#732AEB"/>
<path d="M62.4176 269H73.5824C73.813 269 74 268.818 74 268.594V262.406C74 262.182 73.813 262 73.5824 262H62.4176C62.187 262 62 262.182 62 262.406V268.594C62 268.818 62.187 269 62.4176 269Z" fill="#732AEB"/>
<path d="M39.3828 269H49.6172C49.8286 269 50 268.818 50 268.594V262.406C50 262.182 49.8286 262 49.6172 262H39.3828C39.1714 262 39 262.182 39 262.406V268.594C39 268.818 39.1714 269 39.3828 269Z" fill="#732AEB"/>
<path d="M16.3828 269H26.6172C26.8286 269 27 268.818 27 268.594V262.406C27 262.182 26.8286 262 26.6172 262H16.3828C16.1714 262 16 262.182 16 262.406V268.594C16 268.818 16.1714 269 16.3828 269Z" fill="#732AEB"/>
<path d="M365.418 281H376.582C376.813 281 377 280.818 377 280.594V274.406C377 274.182 376.813 274 376.582 274H365.418C365.187 274 365 274.182 365 274.406V280.594C365 280.818 365.187 281 365.418 281Z" fill="#732AEB"/>
<path d="M342.418 281H353.582C353.813 281 354 280.818 354 280.594V274.406C354 274.182 353.813 274 353.582 274H342.418C342.187 274 342 274.182 342 274.406V280.594C342 280.818 342.187 281 342.418 281Z" fill="#732AEB"/>
<path d="M319.383 281H329.617C329.829 281 330 280.818 330 280.594V274.406C330 274.182 329.829 274 329.617 274H319.383C319.171 274 319 274.182 319 274.406V280.594C319 280.818 319.171 281 319.383 281Z" fill="#732AEB"/>
<path d="M295.418 281H306.582C306.813 281 307 280.818 307 280.594V274.406C307 274.182 306.813 274 306.582 274H295.418C295.187 274 295 274.182 295 274.406V280.594C295 280.818 295.187 281 295.418 281Z" fill="#732AEB"/>
<path d="M272.418 281H283.582C283.813 281 284 280.818 284 280.594V274.406C284 274.182 283.813 274 283.582 274H272.418C272.187 274 272 274.182 272 274.406V280.594C272 280.818 272.187 281 272.418 281Z" fill="#732AEB"/>
<path d="M249.418 281H260.582C260.813 281 261 280.818 261 280.594V274.406C261 274.182 260.813 274 260.582 274H249.418C249.187 274 249 274.182 249 274.406V280.594C249 280.818 249.187 281 249.418 281Z" fill="#732AEB"/>
<path d="M226.383 281H236.617C236.829 281 237 280.818 237 280.594V274.406C237 274.182 236.829 274 236.617 274H226.383C226.171 274 226 274.182 226 274.406V280.594C226 280.818 226.171 281 226.383 281Z" fill="#732AEB"/>
<path d="M202.418 281H213.582C213.813 281 214 280.818 214 280.594V274.406C214 274.182 213.813 274 213.582 274H202.418C202.187 274 202 274.182 202 274.406V280.594C202 280.818 202.187 281 202.418 281Z" fill="#732AEB"/>
<path d="M179.418 281H190.582C190.813 281 191 280.818 191 280.594V274.406C191 274.182 190.813 274 190.582 274H179.418C179.187 274 179 274.182 179 274.406V280.594C179 280.818 179.187 281 179.418 281Z" fill="#732AEB"/>
<path d="M156.383 281H166.617C166.829 281 167 280.818 167 280.594V274.406C167 274.182 166.829 274 166.617 274H156.383C156.171 274 156 274.182 156 274.406V280.594C156 280.818 156.171 281 156.383 281Z" fill="#732AEB"/>
<path d="M132.418 281H143.582C143.813 281 144 280.818 144 280.594V274.406C144 274.182 143.813 274 143.582 274H132.418C132.187 274 132 274.182 132 274.406V280.594C132 280.818 132.187 281 132.418 281Z" fill="#732AEB"/>
<path d="M109.418 281H120.582C120.813 281 121 280.818 121 280.594V274.406C121 274.182 120.813 274 120.582 274H109.418C109.187 274 109 274.182 109 274.406V280.594C109 280.818 109.187 281 109.418 281Z" fill="#732AEB"/>
<path d="M86.3828 281H96.6171C96.8286 281 97 280.818 97 280.594V274.406C97 274.182 96.8286 274 96.6171 274H86.3828C86.1714 274 86 274.182 86 274.406V280.594C86 280.818 86.1714 281 86.3828 281Z" fill="#732AEB"/>
<path d="M62.4177 281H73.5824C73.813 281 74 280.818 74 280.594V274.406C74 274.182 73.813 274 73.5824 274H62.4177C62.187 274 62 274.182 62 274.406V280.594C62 280.818 62.187 281 62.4177 281Z" fill="#732AEB"/>
<path d="M39.4176 281H50.5824C50.813 281 51 280.818 51 280.594V274.406C51 274.182 50.813 274 50.5824 274H39.4176C39.187 274 39 274.182 39 274.406V280.594C39 280.818 39.187 281 39.4176 281Z" fill="#732AEB"/>
<path d="M16.3828 281H26.6172C26.8286 281 27 280.818 27 280.594V274.406C27 274.182 26.8286 274 26.6172 274H16.3828C16.1714 274 16 274.182 16 274.406V280.594C16 280.818 16.1714 281 16.3828 281Z" fill="#732AEB"/>
<path d="M146.405 295H238.595C238.819 295 239 294.818 239 294.594V288.406C239 288.182 238.819 288 238.595 288H146.405C146.181 288 146 288.182 146 288.406V294.594C146 294.818 146.181 295 146.405 295Z" fill="#732AEB"/>
<path d="M358.173 50H35.8267C35.6058 49.9971 35.3955 49.9432 35.241 49.8497C35.0865 49.7563 35 49.6307 35 49.5C35 49.3693 35.0865 49.2437 35.241 49.1503C35.3955 49.0568 35.6058 49.0029 35.8267 49H358.173C358.394 49.0029 358.604 49.0568 358.759 49.1503C358.913 49.2437 359 49.3693 359 49.5C359 49.6307 358.913 49.7563 358.759 49.8497C358.604 49.9432 358.394 49.9971 358.173 50Z" fill="#CACACA"/>
<path d="M55 39C59.9706 39 64 34.7467 64 29.5C64 24.2533 59.9706 20 55 20C50.0294 20 46 24.2533 46 29.5C46 34.7467 50.0294 39 55 39Z" fill="#151515"/>
<path d="M86 39C90.9706 39 95 34.7467 95 29.5C95 24.2533 90.9706 20 86 20C81.0294 20 77 24.2533 77 29.5C77 34.7467 81.0294 39 86 39Z" fill="#151515"/>
<path d="M117.5 39C122.747 39 127 34.7467 127 29.5C127 24.2533 122.747 20 117.5 20C112.253 20 108 24.2533 108 29.5C108 34.7467 112.253 39 117.5 39Z" fill="#151515"/>
<path d="M339.319 22H316.68C316.232 22.0104 315.804 22.2257 315.49 22.5996C315.176 22.9736 315 23.4763 315 24C315 24.5237 315.176 25.0264 315.49 25.4004C315.804 25.7743 316.232 25.9896 316.68 26H339.319C339.768 25.9896 340.196 25.7743 340.51 25.4004C340.824 25.0264 341 24.5237 341 24C341 23.4763 340.824 22.9736 340.51 22.5996C340.196 22.2257 339.768 22.0104 339.319 22Z" fill="#151515"/>
<path d="M339.319 29H316.68C316.232 29.0078 315.804 29.1693 315.49 29.4497C315.176 29.7302 315 30.1073 315 30.5C315 30.8927 315.176 31.2698 315.49 31.5503C315.804 31.8307 316.232 31.9922 316.68 32H339.319C339.768 31.9922 340.196 31.8307 340.51 31.5503C340.824 31.2698 341 30.8927 341 30.5C341 30.1073 340.824 29.7302 340.51 29.4497C340.196 29.1693 339.768 29.0078 339.319 29Z" fill="#151515"/>
<path d="M339.319 35H316.68C316.232 35.0078 315.804 35.1693 315.49 35.4497C315.176 35.7302 315 36.1073 315 36.5C315 36.8927 315.176 37.2698 315.49 37.5503C315.804 37.8307 316.232 37.9922 316.68 38H339.319C339.768 37.9922 340.196 37.8307 340.51 37.5503C340.824 37.2698 341 36.8927 341 36.5C341 36.1073 340.824 35.7302 340.51 35.4497C340.196 35.1693 339.768 35.0078 339.319 35Z" fill="#151515"/>
<path d="M109 121H301V165.39H293.727V177L277.243 165.39H109V121Z" fill="#732AEB"/>
<path d="M296 125H114V161H296V125Z" fill="white"/>
<path d="M216 136H129V138H216V136Z" fill="#732AEB"/>
<path d="M281 142H129V144H281V142Z" fill="#E6E6E6"/>
<path d="M281 149H129V151H281V149Z" fill="#E6E6E6"/>
<path d="M281 183H90V227.39H97.2349V239L113.634 227.39H281V183Z" fill="#E0D0FB"/>
<path d="M276 187H95V223H276V187Z" fill="white"/>
<path d="M198 198H104V200H198V198Z" fill="#E0D0FB"/>
<path d="M268 204H104V206H268V204Z" fill="#E6E6E6"/>
<path d="M268 211H104V213H268V211Z" fill="#E6E6E6"/>
<path d="M281 63H90V107.39H97.2349V119L113.634 107.39H281V63Z" fill="#E0D0FB"/>
<path d="M276 67H95V103H276V67Z" fill="white"/>
<path d="M209 78H105V80H209V78Z" fill="#E0D0FB"/>
<path d="M268 85H104V86H268V85Z" fill="#E6E6E6"/>
<path d="M268 91H104V93H268V91Z" fill="#E6E6E6"/>
</svg>
