<svg width="735" height="404" viewBox="0 0 735 404" fill="none" xmlns="http://www.w3.org/2000/svg">
<path d="M588.5 296.613C586.766 284.933 586.308 273.099 587.134 261.319L588.5 241.824C580.972 256.803 582.673 276.519 588.5 296.613Z" fill="#CACACA"/>
<path d="M594.371 299.874C593.536 292.904 593.316 285.874 593.714 278.866L594.371 267.262C590.749 276.178 591.567 287.913 594.371 299.874Z" fill="#CACACA"/>
<path d="M620.467 314.225V320.748C620.464 321.266 620.257 321.762 619.891 322.128C619.524 322.495 619.028 322.702 618.51 322.704H615.248C615.163 322.704 615.078 322.721 614.998 322.753C614.919 322.786 614.847 322.834 614.786 322.895C614.726 322.955 614.678 323.027 614.645 323.107C614.612 323.186 614.596 323.271 614.596 323.357V376.841C614.593 377.359 614.386 377.855 614.02 378.222C613.654 378.588 613.157 378.795 612.639 378.798H572.848C572.329 378.797 571.831 378.591 571.464 378.224C571.098 377.857 570.891 377.36 570.891 376.841V323.357C570.89 323.184 570.821 323.018 570.699 322.896C570.577 322.774 570.411 322.705 570.238 322.704H566.325C565.806 322.704 565.308 322.498 564.941 322.131C564.574 321.764 564.368 321.267 564.368 320.748V314.225C564.367 313.968 564.418 313.714 564.516 313.476C564.614 313.238 564.758 313.023 564.94 312.841C565.122 312.659 565.338 312.515 565.575 312.417C565.813 312.318 566.068 312.268 566.325 312.268H618.51C619.029 312.27 619.525 312.477 619.892 312.843C620.259 313.21 620.465 313.707 620.467 314.225Z" fill="#F2F2F2"/>
<path d="M614.655 324.074H570.949V326.031H614.655V324.074Z" fill="#E6E6E6"/>
<path d="M614.596 352.867C599.971 358.919 585.187 358.986 570.239 352.867V339.082C584.629 334.249 600.205 334.249 614.596 339.082V352.867Z" fill="#E0D0FB"/>
<path d="M369.623 142.091C402.27 142.091 428.737 115.628 428.737 82.9837C428.737 50.3394 402.27 23.876 369.623 23.876C336.975 23.876 310.509 50.3394 310.509 82.9837C310.509 115.628 336.975 142.091 369.623 142.091Z" fill="#FDE2CF"/>
<path d="M424.836 31.9904C415.998 17.6403 402.163 7.06632 385.996 2.30381L378.739 7.59913V0.723311C374.856 0.129096 370.926 -0.0998134 367 0.0395951L360.739 5.70413V0.510207C351.469 1.66206 342.538 4.72197 334.509 9.497C326.481 14.272 319.529 20.6586 314.092 28.254C300.495 47.8536 298.199 75.121 311.573 94.8779C315.244 83.5967 319.7 73.0118 323.372 61.7317C326.257 62.125 329.181 62.1392 332.07 61.7739L336.537 51.353L337.785 61.3329C351.629 60.1273 372.163 57.4791 385.287 55.053L384.011 47.3966L391.646 53.7586C395.667 52.8333 398.054 51.9935 397.857 51.352C407.618 67.0864 419.564 77.1357 429.324 92.8701C433.031 70.6838 437.298 52.2361 424.836 31.9904Z" fill="#151515"/>
<path d="M496.76 234.981C494.727 222.753 492.631 210.29 486.947 199.274C483.212 192.059 477.282 185.183 469.288 183.757C467.714 183.616 466.166 183.258 464.69 182.692C462.348 181.564 430.873 163.599 425.871 160.47C421.575 157.783 414.795 152.809 411.376 152.809C407.937 152.734 394.748 155.803 343.271 151.78C343.271 151.78 329.13 157.353 318.187 164.111C318.022 164.002 264.759 192.6 262.758 192.525C258.969 192.366 255.446 194.792 253.274 197.847C251.102 200.902 250.083 204.684 249.016 208.341C260.65 234.245 271.294 260.183 282.928 286.087C283.473 287.063 283.762 288.16 283.77 289.278C283.536 290.437 283.041 291.529 282.322 292.468C276.617 301.632 276.798 313.159 277.421 323.929C278.045 334.7 278.816 346.077 274.003 355.731C272.693 358.381 270.99 360.807 269.745 363.458C266.829 369.461 265.775 388.66 267.478 395.11L480.894 401.223C476.305 388.611 496.76 234.981 496.76 234.981Z" fill="#E0D0FB"/>
<path d="M230.569 287.236C230.143 290.316 230.1 293.437 230.441 296.527L233.5 340.451C233.787 344.591 234.07 348.72 234.458 352.85C235.192 360.864 236.289 368.815 237.649 376.754C237.68 377.881 238.157 378.95 238.975 379.726C239.793 380.502 240.886 380.922 242.013 380.893C255.478 383.742 269.389 383.628 283.131 382.852C304.1 381.682 357.748 379.468 361.025 375.211C364.303 370.953 362.393 364.067 358.119 360.625C353.845 357.182 283.05 348.79 283.05 348.79C283.742 343.309 285.829 338.147 287.808 332.943C291.364 323.713 294.685 314.18 294.748 304.292C294.812 294.404 291.087 284.009 282.986 278.344C276.323 273.694 267.744 272.831 259.624 273.023C253.716 273.192 243.508 271.777 238.112 274.087C233.842 275.967 231.366 283.055 230.569 287.236Z" fill="#FDE2CF"/>
<path d="M248.401 209.129C247.364 210.214 246.56 211.5 246.038 212.908C237.434 232.296 232.352 253.062 231.03 274.232C231.054 275.264 230.816 276.285 230.339 277.201C229.868 277.81 229.345 278.377 228.774 278.893C228.276 279.483 227.9 280.165 227.666 280.9C227.432 281.636 227.345 282.41 227.41 283.178C227.476 283.947 227.692 284.696 228.046 285.381C228.401 286.066 228.887 286.675 229.477 287.173C229.573 287.254 229.673 287.333 229.774 287.408C231.531 284.103 235.735 283.023 239.472 282.736C257.364 281.321 274.841 289.644 292.787 289.016C291.521 284.641 289.7 280.437 288.667 276.01C284.101 256.353 295.49 234.95 288.508 216.016C287.113 212.227 284.782 208.502 281.11 206.842C279.59 206.229 277.999 205.808 276.374 205.588C271.84 204.769 262.812 201.267 258.428 202.672C256.81 203.194 256.172 204.716 254.83 205.635C252.793 206.937 250.09 207.415 248.401 209.129Z" fill="#E0D0FB"/>
<path d="M496.888 274.087C491.492 271.777 481.284 273.192 475.376 273.023C467.256 272.831 458.677 273.694 452.014 278.344C443.913 284.009 440.188 294.404 440.251 304.292C440.315 314.179 443.636 323.713 447.192 332.943C449.171 338.147 451.258 343.309 451.95 348.79C451.95 348.79 381.154 357.182 376.881 360.625C372.607 364.067 370.697 370.953 373.975 375.211C377.252 379.468 479.522 383.742 492.987 380.893C494.114 380.922 495.207 380.502 496.025 379.726C496.843 378.95 497.32 377.881 497.351 376.754C498.711 368.815 499.808 360.864 500.542 352.85C500.93 348.721 501.213 344.591 501.5 340.451L504.559 296.527C504.9 293.437 504.857 290.316 504.431 287.236C503.634 283.055 501.158 275.967 496.888 274.087Z" fill="#FDE2CF"/>
<path d="M480.17 205.635C478.828 204.716 478.19 203.194 476.572 202.672C472.188 201.267 463.161 204.769 458.626 205.588C457.001 205.808 455.41 206.229 453.89 206.842C450.218 208.502 447.887 212.227 446.492 216.016C439.51 234.95 450.899 256.353 446.333 276.01C445.3 280.437 443.479 284.641 442.213 289.016C460.159 289.644 477.636 281.321 495.529 282.736C499.265 283.023 503.469 284.103 505.226 287.408C505.327 287.333 505.427 287.254 505.524 287.173C506.113 286.675 506.599 286.066 506.954 285.381C507.308 284.696 507.525 283.947 507.59 283.178C507.655 282.41 507.568 281.636 507.334 280.9C507.1 280.165 506.724 279.483 506.226 278.893C505.656 278.377 505.132 277.811 504.662 277.201C504.185 276.285 503.947 275.264 503.97 274.232C502.648 253.062 497.566 232.296 488.962 212.908C488.44 211.5 487.636 210.214 486.599 209.129C484.91 207.415 482.207 206.937 480.17 205.635Z" fill="#E0D0FB"/>
<path d="M352.115 382.991C360.927 382.991 368.07 375.849 368.07 367.038C368.07 358.227 360.927 351.085 352.115 351.085C343.303 351.085 336.16 358.227 336.16 367.038C336.16 375.849 343.303 382.991 352.115 382.991Z" fill="#FBBEBE"/>
<path d="M387.444 382.991C396.255 382.991 403.399 375.849 403.399 367.038C403.399 358.227 396.255 351.085 387.444 351.085C378.632 351.085 371.489 358.227 371.489 367.038C371.489 375.849 378.632 382.991 387.444 382.991Z" fill="#FBBEBE"/>
<path d="M485.929 402.986H266.733C264.174 402.983 261.72 401.966 259.911 400.156C258.101 398.347 257.083 395.894 257.08 393.335V260.369C257.083 257.81 258.101 255.357 259.911 253.548C261.72 251.738 264.174 250.721 266.733 250.718H485.929C488.489 250.721 490.942 251.738 492.752 253.548C494.561 255.357 495.579 257.81 495.582 260.369V393.335C495.579 395.894 494.561 398.347 492.752 400.156C490.942 401.966 488.489 402.983 485.929 402.986Z" fill="#151515"/>
<path d="M735 376.167H0V398.75H43.4744V404H691.542V398.75H735V376.167Z" fill="#F1F1F1"/>
<path d="M315.263 105.014C305.765 105.014 298.065 96.6897 298.065 86.4207V77.1238C298.065 66.8549 305.765 58.5303 315.263 58.5303L315.263 105.014Z" fill="#732AEB"/>
<path d="M425.036 58.5303C434.534 58.5303 442.234 66.8549 442.234 77.1238V86.4207C442.234 96.6896 434.534 105.014 425.036 105.014V58.5303Z" fill="#732AEB"/>
<path d="M434.048 78.5848H431.319C431.319 41.1709 403.165 10.7323 368.558 10.7323C333.951 10.7323 305.796 41.1709 305.796 78.5848H303.068C303.068 39.5441 332.446 7.78223 368.558 7.78223C404.669 7.78224 434.048 39.5441 434.048 78.5848Z" fill="#732AEB"/>
<path d="M126.133 373.79L54.1135 371.746C54.1135 371.746 59.5342 339.341 42.142 330.346C30.2871 324.213 19.7634 295.559 22.758 276.065C22.7969 275.804 22.8392 275.547 22.8852 275.292C24.4036 266.562 28.7402 259.804 37.0285 257.969C63.832 252.041 82.9617 256.639 82.9617 256.639C82.9617 256.639 87.3901 256.695 93.9515 257.927C94.1846 257.969 94.4177 258.015 94.6543 258.065C113.23 261.703 147.562 274.654 149.049 320.635C151.093 383.808 126.133 373.79 126.133 373.79Z" fill="#151515"/>
<path d="M93.9515 257.927C93.8314 261.223 93.0827 264.498 91.7161 267.614C88.8839 274.068 83.7245 278.998 77.1879 281.496C57.6132 288.984 34.7649 281.556 23.2101 273.503C23.1641 273.757 22.246 278.583 22.2072 278.844C27.3242 282.341 52.362 285.717 57.1117 285.717C64.3228 285.717 71.2657 284.52 77.4421 282.156C84.1554 279.587 89.4525 274.523 92.3624 267.896C93.7502 264.734 94.5165 261.41 94.6543 258.065C94.4177 258.015 94.1846 257.969 93.9515 257.927Z" fill="#732AEB"/>
<path d="M99.2773 262.123L87.797 233.28C87.797 233.28 101.573 209.68 90.749 207.058C79.9247 204.436 68.7724 218.53 68.7724 218.53C68.7724 218.53 48.1077 211.319 40.2355 217.219C40.2355 217.219 27.1151 198.864 19.2428 202.469C11.3706 206.075 22.04 232.062 22.04 232.062C22.04 232.062 5.79443 255.896 18.2588 269.662C30.7232 283.429 77.6286 294.573 99.2773 262.123Z" fill="#151515"/>
<path d="M123.899 356.526C127.807 358.263 131.891 360.036 136.165 359.867C140.44 359.697 144.938 356.946 145.604 352.724C145.948 350.544 145.266 348.205 146.101 346.163C147.225 343.414 150.85 342.354 153.667 343.296C156.485 344.238 158.555 346.667 160.039 349.239C162.816 354.051 163.929 360.367 160.951 365.058C158.37 369.124 153.475 370.962 148.922 372.538C142.856 374.638 136.084 376.721 130.207 374.142C124.296 371.549 121.076 364.055 123.265 357.987" fill="#151515"/>
<path d="M59.2306 249.154C59.2306 249.154 52.1678 246.331 47.5769 249.86L52.874 257.976C52.874 257.976 59.2306 249.154 59.2306 249.154Z" fill="#732AEB"/>
<path d="M22.1507 286.207L35.217 355.725C35.217 355.725 15.441 375.84 40.8672 375.487C66.2935 375.134 58.8775 362.077 58.8775 362.077L50.7552 301.734" fill="#151515"/>
<path d="M40.2256 376C33.3401 376 29.175 374.423 27.8421 371.308C25.4141 365.634 33.3177 356.98 34.6725 355.557L25.8866 303.583L26.8902 303.414L35.7621 355.896L35.5802 356.082C35.4887 356.175 26.4486 365.466 28.7784 370.908C29.9748 373.704 34.032 375.076 40.8604 374.978C50.3519 374.847 56.4726 372.859 58.5609 369.231C60.4413 365.964 58.4547 362.364 58.4343 362.328L58.3864 362.242L58.373 362.145L52.7227 320.152L53.7317 320.016L59.3696 361.917C59.7039 362.552 61.4611 366.219 59.4489 369.728C57.1439 373.748 50.8946 375.856 40.8743 375.995C40.6556 375.998 40.4393 376 40.2256 376Z" fill="#2F2E41"/>
<path d="M55.3461 286.207L68.4123 355.725C68.4123 355.725 48.6364 375.84 74.0626 375.487C99.4888 375.134 92.0729 362.077 92.0729 362.077L83.9506 301.734" fill="#151515"/>
<path d="M73.4208 376C66.5352 376 62.3704 374.423 61.0375 371.308C58.6118 365.639 66.4972 356.997 67.8634 355.561L62.6148 327.588L63.6154 327.401L68.9615 355.892L68.7753 356.082C68.6839 356.175 59.6437 365.466 61.9738 370.908C63.1705 373.704 67.2299 375.081 74.0556 374.978C83.555 374.846 89.6775 372.856 91.7613 369.222C93.6407 365.944 91.6507 362.364 91.6303 362.328L91.5816 362.243L83.4461 301.802L84.4552 301.666L92.565 361.917C92.8993 362.552 94.6565 366.219 92.6443 369.728C90.3394 373.748 84.0898 375.856 74.0695 375.996C73.8508 375.998 73.6345 376 73.4208 376Z" fill="#2F2E41"/>
</svg>
