<svg width="31" height="35" viewBox="0 0 31 35" fill="none" xmlns="http://www.w3.org/2000/svg">
<g clip-path="url(#clip0_3_10)">
<path d="M28.8152 2.18475H2.59098C1.38935 2.18475 0.413025 3.17473 0.413025 4.39002V30.5664C0.413025 31.7817 1.38935 32.7717 2.59098 32.7717H28.8152C30.0168 32.7717 31 31.7817 31 30.5664V4.39002C31 3.17473 30.0168 2.18475 28.8152 2.18475ZM9.65739 28.4021H5.12396V13.8051H9.66421V28.4021H9.65739ZM7.39067 11.8115C5.93643 11.8115 4.76211 10.6303 4.76211 9.18288C4.76211 7.73547 5.93643 6.55432 7.39067 6.55432C8.83809 6.55432 10.0192 7.73547 10.0192 9.18288C10.0192 10.6371 8.84492 11.8115 7.39067 11.8115ZM26.6509 28.4021H22.1175V21.3016C22.1175 19.6084 22.0833 17.4304 19.762 17.4304C17.3997 17.4304 17.0379 19.2738 17.0379 21.1787V28.4021H12.5044V13.8051H16.8535V15.7987H16.915C17.5226 14.6517 19.0042 13.4432 21.2094 13.4432C25.7975 13.4432 26.6509 16.4678 26.6509 20.4004V28.4021Z" fill="#732AEB"/>
</g>
<defs>
<clipPath id="clip0_3_10">
<rect width="30.587" height="34.9565" fill="white" transform="translate(0.413025)"/>
</clipPath>
</defs>
</svg>
