<svg width="82" height="82" viewBox="0 0 82 82" fill="none" xmlns="http://www.w3.org/2000/svg">
<path d="M25.4441 0L34.0711 14.8465L42.6981 29.693H25.4441H8.19003L16.817 14.8465L25.4441 0Z" fill="#732AEB"/>
<path d="M56.7417 0L65.3692 14.8465L73.9961 29.693H56.7417H39.488L48.1148 14.8465L56.7417 0Z" fill="#732AEB"/>
<path d="M24.6419 8.02515L30.0587 16.8531L35.4755 25.6804H24.6419H13.8076L19.2244 16.8531L24.6419 8.02515Z" fill="#3F3D56"/>
<path d="M56.3408 8.02515L61.5571 16.8531L66.7734 25.6804H56.3408H45.9081L51.1244 16.8531L56.3408 8.02515Z" fill="#3F3D56"/>
<path opacity="0.1" d="M79.6136 59.0553C74.5973 72.2526 59.2485 81.8563 41.093 81.8563C22.9376 81.8563 7.58876 72.2526 2.57242 59.0553C13.368 49.9377 27.0056 44.9407 41.093 44.9407C55.1805 44.9407 68.8181 49.9377 79.6136 59.0553Z" fill="black"/>
<path d="M41.093 77.0411C63.2538 77.0411 81.2187 62.6692 81.2187 44.9406C81.2187 27.212 63.2538 12.8401 41.093 12.8401C18.9323 12.8401 0.967407 27.212 0.967407 44.9406C0.967407 62.6692 18.9323 77.0411 41.093 77.0411Z" fill="#3F3D56"/>
<path d="M22.234 48.1508C26.4446 48.1508 29.8579 44.7375 29.8579 40.5269C29.8579 36.3164 26.4446 32.9031 22.234 32.9031C18.0235 32.9031 14.6101 36.3164 14.6101 40.5269C14.6101 44.7375 18.0235 48.1508 22.234 48.1508Z" fill="white"/>
<path d="M59.9521 48.1508C64.1626 48.1508 67.576 44.7375 67.576 40.5269C67.576 36.3164 64.1626 32.9031 59.9521 32.9031C55.7416 32.9031 52.3282 36.3164 52.3282 40.5269C52.3282 44.7375 55.7416 48.1508 59.9521 48.1508Z" fill="white"/>
<path d="M22.234 45.7432C24.6717 45.7432 26.6478 43.5874 26.6478 40.9281C26.6478 38.2688 24.6717 36.113 22.234 36.113C19.7963 36.113 17.8202 38.2688 17.8202 40.9281C17.8202 43.5874 19.7963 45.7432 22.234 45.7432Z" fill="#3F3D56"/>
<path d="M60.3534 45.7432C63.0126 45.7432 65.1684 43.5874 65.1684 40.9281C65.1684 38.2688 63.0126 36.113 60.3534 36.113C57.6941 36.113 55.5383 38.2688 55.5383 40.9281C55.5383 43.5874 57.6941 45.7432 60.3534 45.7432Z" fill="#3F3D56"/>
<path d="M32.6667 52.9659C33.3315 52.9659 33.8704 52.2473 33.8704 51.3609C33.8704 50.4745 33.3315 49.7559 32.6667 49.7559C32.0018 49.7559 31.4629 50.4745 31.4629 51.3609C31.4629 52.2473 32.0018 52.9659 32.6667 52.9659Z" fill="#732AEB"/>
<path d="M32.4296 50.6038C29.6989 51.9606 27.8908 54.7225 25.0219 55.9099C22.0989 57.115 18.8855 57.1803 15.9236 56.0948C15.4121 55.9096 15.1929 56.792 15.7015 56.9762C18.6679 58.0576 21.8759 58.0489 24.8373 56.9516C26.2379 56.4297 27.5527 55.6652 28.7318 54.6871C30.0994 53.551 31.2648 52.1812 32.8512 51.3931C33.3399 51.1502 32.9158 50.3623 32.4296 50.6038Z" fill="#732AEB"/>
<path d="M33.3442 50.566C31.9426 50.9144 30.591 51.4656 29.3263 52.2048C27.8705 52.963 26.3023 53.439 24.6936 53.6108C21.6409 53.8967 18.5881 53.0632 16.029 51.245C15.5757 50.9257 15.1549 51.7088 15.6057 52.0263C18.1678 53.8405 21.2002 54.7244 24.2606 54.5491C25.7458 54.4662 27.2087 54.1241 28.5924 53.5361C30.2599 52.8183 31.7741 51.7717 33.5672 51.4386C34.0982 51.34 33.8731 50.4678 33.3442 50.566Z" fill="#732AEB"/>
<path d="M32.3418 49.8744C30.1959 51.91 29.3041 54.8501 27.0279 56.8201C24.5777 58.9389 21.4598 60.1164 18.2277 60.1436C18.1184 60.1473 18.0148 60.1936 17.9387 60.2727C17.8627 60.3517 17.8202 60.4574 17.8202 60.5673C17.8202 60.6773 17.8627 60.7829 17.9387 60.862C18.0148 60.941 18.1184 60.9873 18.2277 60.991C21.3566 60.9681 24.3938 59.9267 26.8844 58.0231C28.0097 57.1652 28.9985 56.1401 29.8168 54.983C30.8777 53.4737 31.5807 51.7611 32.938 50.4736C33.3335 50.0985 32.7365 49.5001 32.3418 49.8744Z" fill="#732AEB"/>
<path d="M47.5131 52.9659C48.3996 52.9659 49.1182 52.2473 49.1182 51.3609C49.1182 50.4745 48.3996 49.7559 47.5131 49.7559C46.6267 49.7559 45.9081 50.4745 45.9081 51.3609C45.9081 52.2473 46.6267 52.9659 47.5131 52.9659Z" fill="#732AEB"/>
<path d="M47.73 51.3928C49.299 52.1721 50.459 53.5192 51.8072 54.6503C52.9974 55.6443 54.3268 56.4208 55.7439 56.9499C58.7049 58.0495 61.9136 58.0581 64.8796 56.9745C65.3875 56.7907 65.1699 55.9079 64.6576 56.0934C61.6957 57.1789 58.4823 57.1136 55.5592 55.9085C52.6901 54.7199 50.8829 51.9605 48.1515 50.6038C47.6658 50.3625 47.2408 51.1498 47.73 51.3928Z" fill="#732AEB"/>
<path d="M46.2114 51.4386C47.9347 51.7588 49.3908 52.7387 50.9846 53.449C52.4277 54.0878 53.9603 54.4597 55.518 54.5491C58.5785 54.7244 61.6108 53.8405 64.173 52.0263C64.6233 51.7092 64.2034 50.9253 63.7496 51.245C61.1921 53.0668 58.1381 53.9007 55.085 53.6109C53.4771 53.4347 51.9096 52.959 50.4524 52.2048C49.1872 51.4667 47.8358 50.9155 46.4344 50.566C45.9064 50.4679 45.6796 51.3398 46.2114 51.4386Z" fill="#732AEB"/>
<path d="M46.8406 50.4736C48.1966 51.7598 48.8998 53.476 49.9618 54.983C50.7807 56.1396 51.7694 57.1646 52.8942 58.0231C55.3848 59.9267 58.422 60.968 61.5508 60.991C61.6602 60.9873 61.7638 60.941 61.8398 60.862C61.9159 60.7829 61.9584 60.6773 61.9584 60.5673C61.9584 60.4574 61.9159 60.3517 61.8398 60.2727C61.7638 60.1936 61.6602 60.1473 61.5508 60.1436C58.3181 60.12 55.199 58.942 52.7507 56.8201C50.4839 54.8423 49.5821 51.9094 47.4367 49.8744C47.0423 49.5002 46.445 50.0984 46.8406 50.4736Z" fill="#732AEB"/>
<path d="M39.8893 56.1758C44.9862 56.1758 49.1182 53.8404 49.1182 50.9595C49.1182 48.0786 44.9862 45.7432 39.8893 45.7432C34.7923 45.7432 30.6604 48.0786 30.6604 50.9595C30.6604 53.8404 34.7923 56.1758 39.8893 56.1758Z" fill="#732AEB"/>
</svg>
