<svg width="392" height="299" viewBox="0 0 392 299" fill="none" xmlns="http://www.w3.org/2000/svg">
<path d="M9 11.4319V249.555C9.0024 252.59 10.2097 255.5 12.3568 257.645C14.5039 259.791 17.4153 260.998 20.4517 261H373.548C376.585 260.998 379.496 259.791 381.643 257.645C383.79 255.5 384.998 252.59 385 249.555V11.4319C384.993 8.40002 383.784 5.49454 381.637 3.35184C379.491 1.20913 376.582 0.00384819 373.548 0H20.4517C17.4179 0.00387008 14.5093 1.20916 12.3629 3.35186C10.2164 5.49456 9.00722 8.40003 9 11.4319Z" fill="#151515"/>
<path d="M17 14.1425V246.87C17.0028 248.495 17.6495 250.053 18.7985 251.202C19.9474 252.35 21.5049 252.997 23.1298 253H370.87C372.495 252.997 374.053 252.35 375.202 251.202C376.35 250.053 376.997 248.495 377 246.87V14.1425C377 12.5157 376.354 10.9553 375.205 9.80379C374.056 8.65224 372.497 8.00353 370.87 8H23.1298C21.5029 8.00355 19.9439 8.65224 18.7948 9.80379C17.6456 10.9553 17.0002 12.5157 17 14.1425Z" fill="white"/>
<path d="M1.56424 296.401C2.21109 297.217 3.0333 297.874 3.96912 298.324C4.90495 298.774 5.93006 299.005 6.96746 299H385.052C386.086 298.999 387.106 298.766 388.039 298.318C388.973 297.87 389.795 297.219 390.446 296.412C391.097 295.605 391.562 294.662 391.805 293.651C392.048 292.641 392.064 291.589 391.852 290.572L385.983 262.549C385.74 261.406 385.216 260.342 384.459 259.455C383.703 258.568 382.737 257.885 381.651 257.468C380.865 257.158 380.027 256.999 379.182 257H12.8132C11.9684 256.999 11.1309 257.158 10.3445 257.468C9.25819 257.885 8.29278 258.568 7.53619 259.455C6.77959 260.342 6.25583 261.406 6.01264 262.549L0.1436 290.572C-0.0652365 291.589 -0.0460732 292.639 0.199665 293.648C0.445403 294.656 0.911553 295.597 1.56424 296.401Z" fill="#151515"/>
<path d="M365.418 269H376.582C376.813 269 377 268.818 377 268.594V262.406C377 262.182 376.813 262 376.582 262H365.418C365.187 262 365 262.182 365 262.406V268.594C365 268.818 365.187 269 365.418 269Z" fill="#732AEB"/>
<path d="M342.383 269H352.617C352.829 269 353 268.818 353 268.594V262.406C353 262.182 352.829 262 352.617 262H342.383C342.171 262 342 262.182 342 262.406V268.594C342 268.818 342.171 269 342.383 269Z" fill="#732AEB"/>
<path d="M319.383 269H329.617C329.829 269 330 268.818 330 268.594V262.406C330 262.182 329.829 262 329.617 262H319.383C319.171 262 319 262.182 319 262.406V268.594C319 268.818 319.171 269 319.383 269Z" fill="#732AEB"/>
<path d="M295.418 269H306.582C306.813 269 307 268.818 307 268.594V262.406C307 262.182 306.813 262 306.582 262H295.418C295.187 262 295 262.182 295 262.406V268.594C295 268.818 295.187 269 295.418 269Z" fill="#732AEB"/>
<path d="M272.418 269H283.582C283.813 269 284 268.818 284 268.594V262.406C284 262.182 283.813 262 283.582 262H272.418C272.187 262 272 262.182 272 262.406V268.594C272 268.818 272.187 269 272.418 269Z" fill="#732AEB"/>
<path d="M249.383 269H259.617C259.829 269 260 268.818 260 268.594V262.406C260 262.182 259.829 262 259.617 262H249.383C249.171 262 249 262.182 249 262.406V268.594C249 268.818 249.171 269 249.383 269Z" fill="#732AEB"/>
<path d="M225.418 269H236.582C236.813 269 237 268.818 237 268.594V262.406C237 262.182 236.813 262 236.582 262H225.418C225.187 262 225 262.182 225 262.406V268.594C225 268.818 225.187 269 225.418 269Z" fill="#732AEB"/>
<path d="M202.418 269H213.582C213.813 269 214 268.818 214 268.594V262.406C214 262.182 213.813 262 213.582 262H202.418C202.187 262 202 262.182 202 262.406V268.594C202 268.818 202.187 269 202.418 269Z" fill="#732AEB"/>
<path d="M179.383 269H189.617C189.829 269 190 268.818 190 268.594V262.406C190 262.182 189.829 262 189.617 262H179.383C179.171 262 179 262.182 179 262.406V268.594C179 268.818 179.171 269 179.383 269Z" fill="#732AEB"/>
<path d="M155.418 269H166.582C166.813 269 167 268.818 167 268.594V262.406C167 262.182 166.813 262 166.582 262H155.418C155.187 262 155 262.182 155 262.406V268.594C155 268.818 155.187 269 155.418 269Z" fill="#732AEB"/>
<path d="M132.418 269H143.582C143.813 269 144 268.818 144 268.594V262.406C144 262.182 143.813 262 143.582 262H132.418C132.187 262 132 262.182 132 262.406V268.594C132 268.818 132.187 269 132.418 269Z" fill="#732AEB"/>
<path d="M109.383 269H119.617C119.829 269 120 268.818 120 268.594V262.406C120 262.182 119.829 262 119.617 262H109.383C109.171 262 109 262.182 109 262.406V268.594C109 268.818 109.171 269 109.383 269Z" fill="#732AEB"/>
<path d="M85.4177 269H96.5824C96.813 269 97 268.818 97 268.594V262.406C97 262.182 96.813 262 96.5824 262H85.4177C85.187 262 85 262.182 85 262.406V268.594C85 268.818 85.187 269 85.4177 269Z" fill="#732AEB"/>
<path d="M62.4176 269H73.5824C73.813 269 74 268.818 74 268.594V262.406C74 262.182 73.813 262 73.5824 262H62.4176C62.187 262 62 262.182 62 262.406V268.594C62 268.818 62.187 269 62.4176 269Z" fill="#732AEB"/>
<path d="M39.3828 269H49.6172C49.8286 269 50 268.818 50 268.594V262.406C50 262.182 49.8286 262 49.6172 262H39.3828C39.1714 262 39 262.182 39 262.406V268.594C39 268.818 39.1714 269 39.3828 269Z" fill="#732AEB"/>
<path d="M16.3828 269H26.6172C26.8286 269 27 268.818 27 268.594V262.406C27 262.182 26.8286 262 26.6172 262H16.3828C16.1714 262 16 262.182 16 262.406V268.594C16 268.818 16.1714 269 16.3828 269Z" fill="#732AEB"/>
<path d="M365.418 281H376.582C376.813 281 377 280.818 377 280.594V274.406C377 274.182 376.813 274 376.582 274H365.418C365.187 274 365 274.182 365 274.406V280.594C365 280.818 365.187 281 365.418 281Z" fill="#732AEB"/>
<path d="M342.418 281H353.582C353.813 281 354 280.818 354 280.594V274.406C354 274.182 353.813 274 353.582 274H342.418C342.187 274 342 274.182 342 274.406V280.594C342 280.818 342.187 281 342.418 281Z" fill="#732AEB"/>
<path d="M319.383 281H329.617C329.829 281 330 280.818 330 280.594V274.406C330 274.182 329.829 274 329.617 274H319.383C319.171 274 319 274.182 319 274.406V280.594C319 280.818 319.171 281 319.383 281Z" fill="#732AEB"/>
<path d="M295.418 281H306.582C306.813 281 307 280.818 307 280.594V274.406C307 274.182 306.813 274 306.582 274H295.418C295.187 274 295 274.182 295 274.406V280.594C295 280.818 295.187 281 295.418 281Z" fill="#732AEB"/>
<path d="M272.418 281H283.582C283.813 281 284 280.818 284 280.594V274.406C284 274.182 283.813 274 283.582 274H272.418C272.187 274 272 274.182 272 274.406V280.594C272 280.818 272.187 281 272.418 281Z" fill="#732AEB"/>
<path d="M249.418 281H260.582C260.813 281 261 280.818 261 280.594V274.406C261 274.182 260.813 274 260.582 274H249.418C249.187 274 249 274.182 249 274.406V280.594C249 280.818 249.187 281 249.418 281Z" fill="#732AEB"/>
<path d="M226.383 281H236.617C236.829 281 237 280.818 237 280.594V274.406C237 274.182 236.829 274 236.617 274H226.383C226.171 274 226 274.182 226 274.406V280.594C226 280.818 226.171 281 226.383 281Z" fill="#732AEB"/>
<path d="M202.418 281H213.582C213.813 281 214 280.818 214 280.594V274.406C214 274.182 213.813 274 213.582 274H202.418C202.187 274 202 274.182 202 274.406V280.594C202 280.818 202.187 281 202.418 281Z" fill="#732AEB"/>
<path d="M179.418 281H190.582C190.813 281 191 280.818 191 280.594V274.406C191 274.182 190.813 274 190.582 274H179.418C179.187 274 179 274.182 179 274.406V280.594C179 280.818 179.187 281 179.418 281Z" fill="#732AEB"/>
<path d="M156.383 281H166.617C166.829 281 167 280.818 167 280.594V274.406C167 274.182 166.829 274 166.617 274H156.383C156.171 274 156 274.182 156 274.406V280.594C156 280.818 156.171 281 156.383 281Z" fill="#732AEB"/>
<path d="M132.418 281H143.582C143.813 281 144 280.818 144 280.594V274.406C144 274.182 143.813 274 143.582 274H132.418C132.187 274 132 274.182 132 274.406V280.594C132 280.818 132.187 281 132.418 281Z" fill="#732AEB"/>
<path d="M109.418 281H120.582C120.813 281 121 280.818 121 280.594V274.406C121 274.182 120.813 274 120.582 274H109.418C109.187 274 109 274.182 109 274.406V280.594C109 280.818 109.187 281 109.418 281Z" fill="#732AEB"/>
<path d="M86.3828 281H96.6171C96.8286 281 97 280.818 97 280.594V274.406C97 274.182 96.8286 274 96.6171 274H86.3828C86.1714 274 86 274.182 86 274.406V280.594C86 280.818 86.1714 281 86.3828 281Z" fill="#732AEB"/>
<path d="M62.4177 281H73.5824C73.813 281 74 280.818 74 280.594V274.406C74 274.182 73.813 274 73.5824 274H62.4177C62.187 274 62 274.182 62 274.406V280.594C62 280.818 62.187 281 62.4177 281Z" fill="#732AEB"/>
<path d="M39.4176 281H50.5824C50.813 281 51 280.818 51 280.594V274.406C51 274.182 50.813 274 50.5824 274H39.4176C39.187 274 39 274.182 39 274.406V280.594C39 280.818 39.187 281 39.4176 281Z" fill="#732AEB"/>
<path d="M16.3828 281H26.6172C26.8286 281 27 280.818 27 280.594V274.406C27 274.182 26.8286 274 26.6172 274H16.3828C16.1714 274 16 274.182 16 274.406V280.594C16 280.818 16.1714 281 16.3828 281Z" fill="#732AEB"/>
<path d="M146.405 295H238.595C238.819 295 239 294.818 239 294.594V288.406C239 288.182 238.819 288 238.595 288H146.405C146.181 288 146 288.182 146 288.406V294.594C146 294.818 146.181 295 146.405 295Z" fill="#732AEB"/>
<path d="M358.173 50H35.8267C35.6058 49.9971 35.3955 49.9432 35.241 49.8497C35.0865 49.7563 35 49.6307 35 49.5C35 49.3693 35.0865 49.2437 35.241 49.1503C35.3955 49.0568 35.6058 49.0029 35.8267 49H358.173C358.394 49.0029 358.604 49.0568 358.759 49.1503C358.913 49.2437 359 49.3693 359 49.5C359 49.6307 358.913 49.7563 358.759 49.8497C358.604 49.9432 358.394 49.9971 358.173 50Z" fill="#CACACA"/>
<path d="M55 39C59.9706 39 64 34.7467 64 29.5C64 24.2533 59.9706 20 55 20C50.0294 20 46 24.2533 46 29.5C46 34.7467 50.0294 39 55 39Z" fill="#151515"/>
<path d="M86 39C90.9706 39 95 34.7467 95 29.5C95 24.2533 90.9706 20 86 20C81.0294 20 77 24.2533 77 29.5C77 34.7467 81.0294 39 86 39Z" fill="#151515"/>
<path d="M117.5 39C122.747 39 127 34.7467 127 29.5C127 24.2533 122.747 20 117.5 20C112.253 20 108 24.2533 108 29.5C108 34.7467 112.253 39 117.5 39Z" fill="#151515"/>
<path d="M339.319 22H316.68C316.232 22.0104 315.804 22.2257 315.49 22.5996C315.176 22.9736 315 23.4763 315 24C315 24.5237 315.176 25.0264 315.49 25.4004C315.804 25.7743 316.232 25.9896 316.68 26H339.319C339.768 25.9896 340.196 25.7743 340.51 25.4004C340.824 25.0264 341 24.5237 341 24C341 23.4763 340.824 22.9736 340.51 22.5996C340.196 22.2257 339.768 22.0104 339.319 22Z" fill="#151515"/>
<path d="M339.319 29H316.68C316.232 29.0078 315.804 29.1693 315.49 29.4497C315.176 29.7302 315 30.1073 315 30.5C315 30.8927 315.176 31.2698 315.49 31.5503C315.804 31.8307 316.232 31.9922 316.68 32H339.319C339.768 31.9922 340.196 31.8307 340.51 31.5503C340.824 31.2698 341 30.8927 341 30.5C341 30.1073 340.824 29.7302 340.51 29.4497C340.196 29.1693 339.768 29.0078 339.319 29Z" fill="#151515"/>
<path d="M339.319 35H316.68C316.232 35.0078 315.804 35.1693 315.49 35.4497C315.176 35.7302 315 36.1073 315 36.5C315 36.8927 315.176 37.2698 315.49 37.5503C315.804 37.8307 316.232 37.9922 316.68 38H339.319C339.768 37.9922 340.196 37.8307 340.51 37.5503C340.824 37.2698 341 36.8927 341 36.5C341 36.1073 340.824 35.7302 340.51 35.4497C340.196 35.1693 339.768 35.0078 339.319 35Z" fill="#151515"/>
<path d="M196.523 191.998C201.21 193.46 204.255 197.064 203.324 200.047C202.393 203.03 197.839 204.261 193.15 202.798C191.269 202.239 189.55 201.238 188.135 199.878L168.353 193.432L171.576 184.213L190.735 191.547C192.673 191.233 194.657 191.388 196.523 191.998Z" fill="#FFB6B6"/>
<path d="M154.145 124.359C149.429 123.8 145.086 126.988 144.207 131.656C141.073 148.305 134.416 184.308 135.293 185.184C136.434 186.325 179.04 198.879 179.04 198.879L183.985 188.227L155.835 174.533L162.009 134.712C162.792 129.657 159.225 124.961 154.145 124.359Z" fill="#E6E6E6"/>
<path d="M205.475 209.316C200.901 211.102 196.272 210.191 195.136 207.28C193.999 204.369 196.786 200.562 201.361 198.776C203.179 198.037 205.147 197.744 207.101 197.922L226.575 190.598L229.817 199.81L210.276 206.052C208.959 207.508 207.313 208.627 205.475 209.316Z" fill="#A0616A"/>
<path d="M233.557 130.252C238.226 129.378 242.773 132.267 243.964 136.865C248.21 153.266 257.271 188.74 256.455 189.673C255.393 190.889 213.727 206.277 213.727 206.277L208.077 195.982L235.243 180.426L226.408 141.111C225.286 136.12 228.529 131.194 233.557 130.252Z" fill="#E6E6E6"/>
<path d="M150.616 126.762L152.867 112.005L137.671 105.511L135.42 127.943L150.616 126.762Z" fill="#FDE2CF"/>
<path d="M242.352 129.255L240.101 114.497L255.296 108.004L257.547 130.435L242.352 129.255Z" fill="#A0616A"/>
<path d="M146.846 116.911C155.667 116.911 162.817 109.76 162.817 100.94C162.817 92.1196 155.667 84.9692 146.846 84.9692C138.026 84.9692 130.876 92.1196 130.876 100.94C130.876 109.76 138.026 116.911 146.846 116.911Z" fill="#FDE2CF"/>
<path d="M145.572 79.4685C146.034 79.7382 146.653 79.3301 146.801 78.8159C146.949 78.3017 146.777 77.7558 146.606 77.2488L145.744 74.6965C145.133 72.8864 144.484 71.0131 143.16 69.6353C141.163 67.5558 137.988 67.0268 135.13 67.4101C131.46 67.9023 127.838 69.8897 126.132 73.1761C124.425 76.4625 125.152 81.0483 128.235 83.0987C123.84 88.1359 122.309 93.7498 122.55 100.43C122.792 107.111 130.073 113.259 134.82 117.965C135.88 117.323 136.844 114.311 136.261 113.217C135.678 112.122 136.514 110.855 135.792 109.847C135.069 108.839 134.465 110.444 135.195 109.442C135.656 108.809 133.858 107.355 134.543 106.976C137.855 105.145 138.956 101.017 141.036 97.8562C143.545 94.0432 147.839 91.4611 152.383 91.0327C154.887 90.7967 157.531 91.2241 159.582 92.6774C161.634 94.1306 162.963 96.7276 162.487 99.1965C163.719 97.9454 164.332 96.1118 164.101 94.371C163.87 92.6302 162.799 91.0205 161.282 90.1346C162.204 87.0858 161.415 83.5788 159.275 81.2195C157.135 78.8602 148.454 79.262 145.33 79.8829" fill="#151515"/>
<path d="M145.087 91.1252C140.949 91.5719 137.961 95.156 135.439 98.466C133.985 100.374 132.461 102.481 132.498 104.879C132.535 107.304 134.156 109.384 134.931 111.682C136.198 115.438 134.963 119.907 131.948 122.481C134.927 123.047 138.148 120.813 138.662 117.825C139.261 114.346 136.624 110.988 136.936 107.472C137.211 104.375 139.652 101.991 141.727 99.6747C143.803 97.3586 145.752 94.2853 144.797 91.3256" fill="#151515"/>
<path d="M152.741 124.58L134.648 119.635L115.997 127.243L108.004 190.393L153.68 191.914V181.728C153.68 181.728 161.674 171.752 160.151 157.296L158.629 142.84L152.741 124.58Z" fill="#E6E6E6"/>
<path d="M160.75 149.784L125.122 147.882L115.457 175.455C115.457 175.455 103.518 191.999 101.623 204.17C99.7277 216.34 100.865 233.454 100.865 233.454H157.902L153.359 181.245C153.359 181.245 163.967 158.151 162.737 154.157C161.508 150.164 160.75 149.784 160.75 149.784Z" fill="#151515"/>
<path d="M133.758 119.635H124.62V152.036H133.758V119.635Z" fill="#151515"/>
<path d="M160.344 127.112H152.036V153.698H160.344V127.112Z" fill="#151515"/>
<path d="M239.348 127.073L257.46 122.127L276.131 129.736L284.133 192.885L238.408 194.407V184.221C238.408 184.221 233.73 173.807 238.217 159.979C242.599 146.474 233.454 145.333 233.454 145.333L239.348 127.073Z" fill="#E6E6E6"/>
<path d="M230.962 153.107L267.044 151.205L276.832 178.779C276.832 178.779 282.781 197.604 284.701 209.775C286.62 221.945 291.61 236.777 291.61 236.777H233.845L232.113 186.575L230.962 153.107Z" fill="#151515"/>
<path d="M267.517 122.958H258.378V154.528H267.517V122.958Z" fill="#151515"/>
<path d="M240.101 129.604H231.793V156.19H240.101V129.604Z" fill="#151515"/>
<path d="M245.916 118.804C256.928 118.804 265.855 109.877 265.855 98.865C265.855 87.8529 256.928 78.9258 245.916 78.9258C234.904 78.9258 225.977 87.8529 225.977 98.865C225.977 109.877 234.904 118.804 245.916 118.804Z" fill="#A0616A"/>
<path d="M265.498 109.665C265.498 109.665 255.728 98.1036 251.819 99.0671C247.911 100.031 250.354 101.476 250.354 101.476L240.583 90.8775C240.583 90.8775 232.767 87.9871 225.439 97.1401C225.439 97.1401 221.042 89.4323 225.439 85.0966C229.835 80.761 231.301 81.2427 232.278 78.834C233.255 76.4253 240.095 74.4984 240.095 74.4984C240.095 74.4984 239.702 71.0314 241.853 72.7649C244.003 74.4984 249.373 74.4984 249.373 74.4984C249.373 74.4984 249.404 72.5714 251.588 74.4984C253.773 76.4253 256.216 75.4618 256.216 75.4618C256.216 75.4618 256.216 78.7961 257.926 78.8151C259.636 78.834 262.567 76.4253 263.055 78.3523C263.544 80.2792 266.964 81.2427 267.452 87.0236C267.941 92.8045 265.498 109.665 265.498 109.665Z" fill="#151515"/>
<path d="M191.299 139.834L206.786 169.111L204.663 170.234L189.176 140.957C188.951 140.532 189.114 140.004 189.539 139.779L190.122 139.471C190.546 139.246 191.074 139.409 191.299 139.834Z" fill="#3F3D56"/>
<path d="M217.1 180.175C213.16 179.16 209.038 180.958 207.061 184.515C204.585 188.968 201.757 192.621 202.704 183.914C203.746 174.329 198.123 166.587 202.542 164.25C206.962 161.912 211.525 169.017 218.707 175.449C225.364 181.41 221.525 181.316 217.1 180.175Z" fill="#3F3D56"/>
<path d="M194.294 145.757C198.76 143.717 203.433 144.369 204.73 147.211C206.028 150.054 203.459 154.011 198.991 156.05C197.217 156.889 195.268 157.292 193.307 157.223L174.273 165.625L170.521 156.609L189.683 149.284C190.916 147.757 192.497 146.547 194.294 145.757Z" fill="#FFB6B6"/>
<path d="M117.593 123.67C113.707 126.402 112.601 131.674 115.062 135.737C123.84 150.227 142.911 181.48 144.149 181.548C145.761 181.636 185.867 162.549 185.867 162.549L182.441 151.317L152.338 159.906L130.359 126.132C127.568 121.844 121.778 120.727 117.593 123.67Z" fill="#E6E6E6"/>
<path d="M196.068 190.587L247.887 163.667L254.248 175.477C259.735 185.664 255.768 198.31 245.395 203.699L231.166 211.091C220.793 216.479 207.916 212.584 202.429 202.396L196.068 190.587Z" fill="#732AEB"/>
<path d="M239.923 209.02C235.519 211.032 230.912 210.39 229.632 207.586C228.352 204.783 230.885 200.88 235.291 198.868C237.04 198.041 238.961 197.644 240.895 197.711L259.662 189.422L263.363 198.313L244.469 205.541C243.253 207.047 241.695 208.24 239.923 209.02Z" fill="#A0616A"/>
<path d="M278.399 128.837C283.139 128.283 287.504 131.443 288.387 136.071C291.537 152.576 298.227 188.269 297.346 189.138C296.199 190.269 253.379 202.715 253.379 202.715L248.409 192.155L276.701 178.578L270.496 139.101C269.708 134.089 273.293 129.433 278.399 128.837Z" fill="#E6E6E6"/>
</svg>
